<?xml version="1.0" encoding="UTF-8"?>
<svg width="41px" height="34px" viewBox="0 0 41 34" version="1.1" xmlns="http://www.w3.org/2000/svg" xmlns:xlink="http://www.w3.org/1999/xlink">
    <!-- Generator: Sketch 47.1 (45422) - http://www.bohemiancoding.com/sketch -->
    <title>daftarmudah</title>
    <desc>Created with Sketch.</desc>
    <defs></defs>
    <g id="Pendanaan" stroke="none" stroke-width="1" fill="none" fill-rule="evenodd">
        <g id="Pendanaan---Desktop-HD" transform="translate(-770.000000, -1651.000000)">
            <g id="Benefit-meminjam" transform="translate(0.000000, 1331.000000)">
                <g id="sekilas-copy-2">
                    <g id="Group-9" transform="translate(280.000000, 189.000000)">
                        <g id="daftarmudah" transform="translate(460.000000, 103.000000)">
                            <circle id="Oval" cx="45" cy="45" r="45"></circle>
                            <g id="001-business" transform="translate(31.000000, 29.000000)" stroke="#FE8B0F" stroke-width="0.5" fill="#FE8B0F" fill-rule="nonzero">
                                <path d="M24.7181333,26.8056 C24.3595556,26.7229333 24.0015111,26.9468444 23.9188444,27.3056 L23.1472889,30.6555556 L1.50435556,30.6555556 L3.54488889,21.796 L20.0332444,21.796 C20.4014222,21.796 20.6999111,21.4975111 20.6999111,21.1293333 C20.6999111,20.7611556 20.4014222,20.4626667 20.0332444,20.4626667 L3.54488889,20.4626667 L1.50435556,11.6031111 L23.1473778,11.6031111 L24.1300444,15.8697778 C24.2127111,16.2286222 24.5705778,16.4525333 24.9293333,16.3697778 C25.2881778,16.2871111 25.512,15.9292444 25.4293333,15.5704889 L24.3620444,10.9363556 L26.6752,0.893066667 C26.7208,0.695111111 26.6736,0.487288889 26.5472,0.328266667 C26.4208,0.169244444 26.2287111,0.0767111111 26.0256,0.0767111111 L3.01431111,0.0767111111 C2.70373333,0.0767111111 2.4344,0.291111111 2.36462222,0.593777778 L0.0170666667,10.7868444 C-0.0056,10.8852444 -0.0056,10.9876444 0.0170666667,11.0860444 L2.33022222,21.1293333 L0.0170666667,31.1726222 C-0.0285333333,31.3705778 0.0186666667,31.5784 0.145066667,31.7374222 C0.271466667,31.8964444 0.463555556,31.9889778 0.666666667,31.9889778 L23.6778667,31.9889778 C23.9884444,31.9889778 24.2577778,31.7745778 24.3275556,31.4719111 L25.2182222,27.6049778 C25.3008,27.2461333 25.0769778,26.8882667 24.7181333,26.8056 Z M3.54488889,1.41022222 L25.1879111,1.41022222 L23.1473778,10.2697778 L1.50435556,10.2697778 L3.54488889,1.41022222 Z" id="Shape"></path>
                                <path d="M5.59973333,4.90675556 L17.0658667,4.90675556 C17.4340444,4.90675556 17.7325333,4.60826667 17.7325333,4.24008889 C17.7325333,3.87191111 17.4340444,3.57342222 17.0658667,3.57342222 L5.59973333,3.57342222 C5.23155556,3.57342222 4.93306667,3.87191111 4.93306667,4.24008889 C4.93306667,4.60826667 5.23155556,4.90675556 5.59973333,4.90675556 Z" id="Shape"></path>
                                <path d="M4.39982222,8.10657778 L15.8659556,8.10657778 C16.2341333,8.10657778 16.5326222,7.80808889 16.5326222,7.43991111 C16.5326222,7.07173333 16.2341333,6.77324444 15.8659556,6.77324444 L4.39982222,6.77324444 C4.03164444,6.77324444 3.73315556,7.07173333 3.73315556,7.43991111 C3.73315556,7.80808889 4.03164444,8.10657778 4.39982222,8.10657778 Z" id="Shape"></path>
                                <path d="M17.7325333,24.6258667 C17.7325333,24.2576889 17.4340444,23.9592 17.0658667,23.9592 L5.59973333,23.9592 C5.23155556,23.9592 4.93306667,24.2576889 4.93306667,24.6258667 C4.93306667,24.9940444 5.23155556,25.2925333 5.59973333,25.2925333 L17.0658667,25.2925333 C17.4340444,25.2925333 17.7325333,24.9940444 17.7325333,24.6258667 Z" id="Shape"></path>
                                <path d="M4.39982222,27.1590222 C4.03164444,27.1590222 3.73315556,27.4575111 3.73315556,27.8256889 C3.73315556,28.1938667 4.03164444,28.4923556 4.39982222,28.4923556 L15.8659556,28.4923556 C16.2341333,28.4923556 16.5326222,28.1938667 16.5326222,27.8256889 C16.5326222,27.4575111 16.2341333,27.1590222 15.8659556,27.1590222 L4.39982222,27.1590222 Z" id="Shape"></path>
                                <path d="M16.5325333,14.4329778 C16.5325333,14.0648 16.2340444,13.7663111 15.8658667,13.7663111 L4.39982222,13.7663111 C4.03164444,13.7663111 3.73315556,14.0648 3.73315556,14.4329778 C3.73315556,14.8011556 4.03164444,15.0996444 4.39982222,15.0996444 L15.8659556,15.0996444 C16.2340444,15.0996444 16.5325333,14.8011556 16.5325333,14.4329778 Z" id="Shape"></path>
                                <path d="M5.59973333,18.2994667 L17.0658667,18.2994667 C17.4340444,18.2994667 17.7325333,18.0009778 17.7325333,17.6328 C17.7325333,17.2646222 17.4340444,16.9661333 17.0658667,16.9661333 L5.59973333,16.9661333 C5.23155556,16.9661333 4.93306667,17.2646222 4.93306667,17.6328 C4.93306667,18.0009778 5.23155556,18.2994667 5.59973333,18.2994667 Z" id="Shape"></path>
                                <path d="M19.212,5.54071111 C19.2587556,5.77448889 19.4268444,5.96551111 19.6527111,6.04168889 C19.7224,6.06515556 19.7942222,6.07662222 19.8656,6.07662222 C20.0256889,6.07662222 20.1831111,6.01893333 20.3067556,5.90986667 L22.5733333,3.90995556 C22.8494222,3.6664 22.8757333,3.24506667 22.6320889,2.96897778 C22.3885333,2.69297778 21.9672889,2.66657778 21.6911111,2.91022222 L20.2924444,4.14435556 L20.2528,3.94595556 C20.1805333,3.58497778 19.8297778,3.35075556 19.4682667,3.42302222 C19.1072,3.49528889 18.8731556,3.84648889 18.9453333,4.20755556 L19.212,5.54071111 Z" id="Shape"></path>
                                <path d="M19.8992889,16.4224 C19.9321778,16.4224 19.9652444,16.42 19.9983111,16.4150222 C20.2340444,16.3796444 20.4330667,16.2209778 20.52,15.9990222 L21.6232,13.1848 C21.7576,12.8420444 21.5886222,12.4552 21.2458667,12.3208 C20.9030222,12.1862222 20.5162667,12.3553778 20.3818667,12.6981333 L19.7010667,14.4348444 L19.5751111,14.2764444 C19.3460444,13.9882667 18.9266667,13.9402667 18.6384,14.1694222 C18.3502222,14.3984889 18.3022222,14.8178667 18.5313778,15.1061333 L19.3774222,16.1705778 C19.5049778,16.3310222 19.6978667,16.4224 19.8992889,16.4224 Z" id="Shape"></path>
                                <path d="M19.9721778,19.6088889 C20.0997333,19.7693333 20.2925333,19.8607111 20.4939556,19.8607111 C20.5268444,19.8607111 20.5599111,19.8583111 20.5929778,19.8533333 C20.8287111,19.8179556 21.0277333,19.6592889 21.1146667,19.4373333 L22.2178667,16.6231111 C22.3522667,16.2803556 22.1832889,15.8935111 21.8405333,15.7591111 C21.4976,15.6245333 21.1109333,15.7936889 20.9765333,16.1364444 L20.2957333,17.8731556 L20.1697778,17.7147556 C19.9407111,17.4265778 19.5214222,17.3785778 19.2330667,17.6077333 C18.9448889,17.8368 18.8968889,18.2561778 19.1260444,18.5444444 L19.9721778,19.6088889 Z" id="Shape"></path>
                                <path d="M38.6408889,12.5066667 L35.2416889,8.88311111 C35.1207111,8.75413333 34.9535111,8.67857778 34.7768,8.67288889 C34.5992,8.66791111 34.4283556,8.73208889 34.2993778,8.85297778 L21.5611556,20.8025778 C21.4794667,20.8792 21.4184,20.9751111 21.3836444,21.0816 L19.7772444,25.9946667 C19.7015111,26.2261333 19.7580444,26.4803556 19.9247111,26.6579556 C20.0524444,26.7940444 20.2291556,26.8685333 20.4109333,26.8685333 C20.4663111,26.8685333 20.5221333,26.8616 20.5772444,26.8474667 L25.5828444,25.5578667 C25.6912889,25.5299556 25.7909333,25.4751111 25.8726222,25.3984889 L38.6108444,13.4488889 C38.8792889,13.1970667 38.8928,12.7752 38.6408889,12.5066667 Z M21.4225778,25.2528 L22.3011556,22.5657778 L24.1601778,24.5474667 L21.4225778,25.2528 Z M25.4465778,23.9699556 L22.9596444,21.3188444 L34.7254222,10.2815111 L37.2124444,12.9326222 L25.4465778,23.9699556 Z" id="Shape"></path>
                            </g>
                        </g>
                    </g>
                </g>
            </g>
        </g>
    </g>
</svg>