<?xml version="1.0" encoding="UTF-8"?>
<svg width="41px" height="30px" viewBox="0 0 41 30" version="1.1" xmlns="http://www.w3.org/2000/svg" xmlns:xlink="http://www.w3.org/1999/xlink">
    <!-- Generator: Sketch 47.1 (45422) - http://www.bohemiancoding.com/sketch -->
    <title>flexibel</title>
    <desc>Created with Sketch.</desc>
    <defs></defs>
    <g id="Pendanaan" stroke="none" stroke-width="1" fill="none" fill-rule="evenodd">
        <g id="Pendanaan---Desktop-HD" transform="translate(-305.000000, -1655.000000)">
            <g id="Benefit-meminjam" transform="translate(0.000000, 1331.000000)">
                <g id="sekilas-copy-2">
                    <g id="Group-9" transform="translate(280.000000, 189.000000)">
                        <g id="flexibel" transform="translate(0.000000, 103.000000)">
                            <circle id="Oval" cx="45" cy="45" r="45"></circle>
                            <g id="004-money" transform="translate(26.000000, 32.000000)" fill="#FE8B0F">
                                <path d="M36.0699727,13.8588166 C35.6395254,13.8588166 35.2420605,13.9638156 34.8895371,14.122076 C34.3535918,13.4364587 33.5217187,12.9926896 32.5839668,12.9917752 C32.0993613,12.9917752 31.6536035,13.1203951 31.2706113,13.3130964 L31.2305449,13.3353458 L30.033123,14.0458031 C29.4963398,13.4036942 28.6923457,12.9922324 27.7903184,12.9917752 C27.3057129,12.9917752 26.8599551,13.1203951 26.4769629,13.3130964 L26.4290508,13.3401462 L21.8444941,16.1489823 C20.809166,15.8429767 19.6596562,15.5073306 18.548918,15.1921813 C17.377166,14.8595831 16.2502793,14.5505296 15.3470332,14.3225493 C14.8947246,14.2083305 14.4990879,14.1146087 14.1757383,14.0479366 C14.0136445,14.0143339 13.869832,13.9878175 13.742168,13.968235 C13.612752,13.9490334 13.5046641,13.9355466 13.3827129,13.9350894 C13.2885645,13.9355466 13.2070605,13.9437759 13.1142832,13.9551292 C12.7766133,13.999628 12.2963496,14.1024934 11.7298594,14.2353803 C10.5725039,14.5074023 9.09537891,14.9031675 8.27919727,15.1254331 L8.27919727,13.7436073 C8.27919727,12.7846728 7.49485547,12 6.53615625,12 L1.74304102,12 C0.784341797,12.0001524 0,12.784749 0,13.7437597 L0,27.2563927 C0,28.2153272 0.784341797,29 1.74304102,29 L6.53623242,29 C7.49485547,29 8.27927344,28.2154034 8.27927344,27.2563927 L8.27927344,26.2072414 C9.31376367,26.4325548 11.6097363,26.9285948 14.0303262,27.4259302 C15.6674883,27.7620335 17.359418,28.0985178 18.7568672,28.3521763 C19.4558203,28.4790437 20.0811152,28.584957 20.5931426,28.6599345 C21.1095117,28.734531 21.4942559,28.7807061 21.7875176,28.7824586 C22.0158047,28.7816205 22.2319805,28.738417 22.4655234,28.6738785 C22.9000078,28.5513543 23.3945156,28.3434899 23.9605488,28.0684201 C25.9305059,27.1077331 28.759834,25.3078926 31.4288203,23.5268728 C34.0930078,21.7479864 36.5850469,19.9914256 37.8060059,19.1501387 C38.5703145,18.6231629 39,17.7326529 39,16.7902531 C38.9987051,15.1716844 37.6883203,13.8596548 36.0699727,13.8588166 Z M6.97193555,27.2562403 C6.97193555,27.4924498 6.77236523,27.692085 6.53623242,27.692085 L1.74304102,27.692085 C1.5069082,27.692085 1.30733789,27.4924498 1.30733789,27.2562403 L1.30733789,13.7437597 C1.30733789,13.5075502 1.5069082,13.307915 1.74304102,13.307915 L6.53623242,13.307915 C6.77236523,13.307915 6.97193555,13.5075502 6.97193555,13.7437597 L6.97193555,27.2562403 Z M37.0647773,18.0729471 C35.5632012,19.1077734 32.2031074,21.4811458 28.9507207,23.594383 C27.3258223,24.6500872 25.7279648,25.6400337 24.4176563,26.3575011 C23.7631875,26.7162348 23.1792539,27.0060868 22.7125488,27.2000834 C22.4794629,27.2967769 22.2754746,27.3696209 22.1137617,27.4145007 C21.9529629,27.4602186 21.8317734,27.4755342 21.7878223,27.4746198 C21.6453047,27.4759151 21.2680254,27.4384264 20.7830391,27.3660396 C19.0662012,27.1145146 15.8525859,26.4724056 13.0854902,25.8949114 C11.7006855,25.6058976 10.4251875,25.3330375 9.49581445,25.132488 C8.9559082,25.0161358 8.53932422,24.9250046 8.27957813,24.8687715 L8.27957813,16.4815044 C8.40731836,16.4461492 8.5745918,16.4004312 8.77545703,16.3459506 C9.46443164,16.1589641 10.515832,15.8786367 11.4588398,15.6463894 C11.9298867,15.529961 12.3748066,15.4263336 12.728168,15.3525752 C12.9042012,15.3160008 13.0580684,15.2868175 13.1761348,15.267997 C13.2919922,15.2487954 13.3821797,15.2418615 13.3830938,15.2431569 C13.3853027,15.2426997 13.4537051,15.2470429 13.5469395,15.2615203 C13.9077656,15.3155437 14.647166,15.4885862 15.5478223,15.7244147 C18.2621309,16.4336529 22.542,17.7155849 24.2711016,18.2408082 C24.8693555,18.4212418 25.4110137,18.6932638 25.766584,19.0232713 C25.9452832,19.1880846 26.079498,19.364175 26.1696855,19.5545904 C26.259873,19.7459201 26.310832,19.9530225 26.3117461,20.2062239 C26.3112891,20.7192558 26.105625,21.1778071 25.769707,21.5148247 C25.4359219,21.847423 24.9826992,22.0509442 24.4768418,22.0557446 L22.7900156,21.8905503 L17.0333262,21.1512144 C16.6750898,21.1054965 16.3473984,21.3582407 16.3012383,21.7165172 C16.255002,22.0748699 16.5086543,22.4021344 16.8663574,22.4483858 L22.641709,23.1897789 L24.4291582,23.3649549 L24.4613789,23.3649549 C26.2048008,23.3644978 27.6179414,21.950898 27.6188555,20.2064525 C27.6196934,19.76756 27.5225742,19.3547267 27.3504258,18.9934023 C27.0912129,18.4489774 26.6741719,18.0274577 26.202668,17.7065937 C25.7294121,17.3848916 25.1952188,17.1556921 24.6514277,16.9900407 C24.3481875,16.8980713 23.9660332,16.7821001 23.529416,16.6508895 L27.0768164,14.477076 C27.3068555,14.3637716 27.5422266,14.2996903 27.7914609,14.2992331 C28.2141387,14.2987759 28.5958359,14.4626749 28.884375,14.7277629 L27.1318125,15.7673896 C26.8215645,15.9514045 26.7191895,16.3528083 26.9035254,16.6631571 C27.0878613,16.973506 27.4887539,17.0763714 27.7993828,16.8920518 L31.8675703,14.4785238 C32.0989043,14.3638478 32.3355703,14.2993855 32.5857188,14.2993855 C33.0367324,14.2989283 33.4424238,14.4868292 33.7365234,14.7849866 L28.9995469,17.5951942 C28.6888418,17.7792091 28.5869238,18.1806129 28.7712598,18.4913427 C28.9555957,18.8016916 29.3564883,18.9040998 29.6671172,18.719704 L34.7893711,15.6806779 C34.8390352,15.6723724 34.8891563,15.660181 34.9379824,15.6392269 C35.0429473,15.5947281 35.1284121,15.52417 35.1941484,15.4404299 L35.3540332,15.3454127 C35.5853672,15.2307368 35.8220332,15.1662745 36.0721055,15.1662745 C36.5213672,15.1667317 36.9230977,15.3472415 37.2190254,15.6418938 C37.513582,15.9379177 37.693957,16.3401597 37.6944902,16.7900245 C37.6922813,17.3380306 37.4412949,17.8166216 37.0647773,18.0729471 Z" id="Shape" stroke="#FE8B0F" stroke-width="0.8" fill-rule="nonzero"></path>
                                <path d="M12.3122591,7.86516854 C12.2274475,7.86516854 12.1542023,7.83520629 12.0925212,7.7752809 C12.0308401,7.71535551 12,7.64419517 12,7.56179775 L12,0.303370787 C12,0.220973371 12.0308401,0.149813034 12.0925212,0.0898876404 C12.1542023,0.0299622472 12.2274475,0 12.3122591,0 L15.7355436,0 C16.8458035,0 17.7131811,0.241570618 18.3377024,0.724719101 C18.9622236,1.20786758 19.2744796,1.87640022 19.2744796,2.73033708 C19.2744796,3.2172309 19.1626842,3.64606556 18.9390902,4.01685393 C18.7154962,4.3876423 18.4109503,4.6928827 18.0254433,4.93258427 L19.4479568,7.49438202 C19.4710872,7.53932607 19.4826523,7.58052416 19.4826523,7.61797753 C19.4826523,7.6853936 19.4575947,7.74344545 19.4074788,7.79213483 C19.3573629,7.84082421 19.2976102,7.86516854 19.228219,7.86516854 L16.8573631,7.86516854 C16.7185806,7.86516854 16.6087128,7.83333365 16.5277564,7.76966292 C16.4467999,7.70599219 16.3909022,7.63670449 16.3600617,7.56179775 L15.3654588,5.41573034 L14.8912876,5.41573034 L14.8912876,7.56179775 C14.8912876,7.64419517 14.8604475,7.71535551 14.7987664,7.7752809 C14.7370853,7.83520629 14.6638401,7.86516854 14.5790285,7.86516854 L12.3122591,7.86516854 Z M15.7355436,3.28089888 C15.9051666,3.28089888 16.036237,3.2265923 16.1287587,3.11797753 C16.2212803,3.00936275 16.2675405,2.87266 16.2675405,2.70786517 C16.2675405,2.54307034 16.2232078,2.39887702 16.1345412,2.2752809 C16.0458747,2.15168478 15.9128768,2.08988764 15.7355436,2.08988764 L14.8912876,2.08988764 L14.8912876,3.28089888 L15.7355436,3.28089888 Z M20.5466461,10 C20.4618346,10 20.3885894,9.97003775 20.3269082,9.91011236 C20.2652271,9.85018697 20.234387,9.77902663 20.234387,9.69662921 L20.234387,2.3258427 C20.234387,2.24344528 20.2652271,2.17228494 20.3269082,2.11235955 C20.3885894,2.05243416 20.4618346,2.02247191 20.5466461,2.02247191 L22.5127217,2.02247191 C22.5975332,2.02247191 22.6707784,2.05243416 22.7324595,2.11235955 C22.7941406,2.17228494 22.8249807,2.24344528 22.8249807,2.3258427 L22.8249807,2.66292135 C23.0100241,2.43071045 23.2471073,2.24719169 23.5362375,2.11235955 C23.8253677,1.97752742 24.1588262,1.91011236 24.536623,1.91011236 C25.2536659,1.91011236 25.8319176,2.11984809 26.2713955,2.53932584 C26.7108734,2.9588036 26.9498842,3.61422775 26.9884348,4.50561798 C26.996145,4.61797809 27,4.76404404 27,4.94382022 C27,5.13108708 26.996145,5.28089831 26.9884348,5.39325843 C26.9575943,6.23970461 26.7166561,6.88202028 26.265613,7.32022472 C25.8145698,7.75842916 25.2382456,7.97752809 24.536623,7.97752809 C23.8350003,7.97752809 23.3222838,7.75281124 22.998458,7.30337079 L22.998458,9.69662921 C22.998458,9.77902663 22.9676179,9.85018697 22.9059368,9.91011236 C22.8442557,9.97003775 22.7710104,10 22.6861989,10 L20.5466461,10 Z M23.5767155,5.96629213 C23.7771791,5.96629213 23.917887,5.9138582 23.9988435,5.80898876 C24.0797999,5.70411933 24.1318426,5.53932697 24.154973,5.31460674 C24.1703933,5.16479326 24.1781033,5.04119899 24.1781033,4.94382022 C24.1781033,4.84644146 24.1703933,4.72284719 24.154973,4.57303371 C24.1318426,4.34831348 24.0797999,4.18352112 23.9988435,4.07865169 C23.917887,3.97378225 23.7771791,3.92134831 23.5767155,3.92134831 C23.3762519,3.92134831 23.2336165,3.97565489 23.1488049,4.08426966 C23.0639934,4.19288444 23.0138783,4.35580416 22.998458,4.57303371 C22.9907478,4.68539382 22.9868928,4.82396921 22.9868928,4.98876404 C22.9868928,5.15355888 22.9907478,5.29213427 22.998458,5.40449438 C23.0138783,5.59176124 23.0659209,5.73220927 23.1545875,5.8258427 C23.2432541,5.91947612 23.383962,5.96629213 23.5767155,5.96629213 Z" id="Rp"></path>
                            </g>
                        </g>
                    </g>
                </g>
            </g>
        </g>
    </g>
</svg>