<?xml version="1.0" encoding="UTF-8"?>
<svg width="324px" height="62px" viewBox="0 0 324 62" version="1.1" xmlns="http://www.w3.org/2000/svg" xmlns:xlink="http://www.w3.org/1999/xlink">
    <!-- Generator: Sketch 47.1 (45422) - http://www.bohemiancoding.com/sketch -->
    <title>Group 5</title>
    <desc>Created with Sketch.</desc>
    <defs></defs>
    <g id="Perujuk" stroke="none" stroke-width="1" fill="none" fill-rule="evenodd">
        <g id="Perujuk---Desktop-HD" transform="translate(-571.000000, -387.000000)" fill="#FFFFFF">
            <g id="big-banner-caption" transform="translate(330.000000, 346.000000)">
                <g id="Group-5" transform="translate(210.000000, 30.000000)">
                    <path d="M88.9375,16.0898438 L94.7382812,16.0898438 C97.2461063,16.0898438 99.203118,16.8320238 100.609375,18.3164062 C102.015632,19.8007887 102.71875,21.8749867 102.71875,24.5390625 C102.71875,27.2031383 102.017585,29.2792894 100.615234,30.7675781 C99.2128836,32.2558668 97.2539188,33 94.7382812,33 L88.9375,33 L88.9375,16.0898438 Z M91.046875,17.9882812 L91.046875,31.1015625 L94.5976562,31.1015625 C96.5117283,31.1015625 97.9843698,30.5351619 99.015625,29.4023438 C100.04688,28.2695256 100.5625,26.6562605 100.5625,24.5625 C100.5625,22.4453019 100.048833,20.8203182 99.0214844,19.6875 C97.9941355,18.5546818 96.5195409,17.9882812 94.5976562,17.9882812 L91.046875,17.9882812 Z M109.550781,31.3476562 C110.582036,31.3476562 111.435543,31.0488311 112.111328,30.4511719 C112.787113,29.8535126 113.125,29.101567 113.125,28.1953125 L113.125,27.1757812 L109.820312,27.3867188 C107.898428,27.5039068 106.9375,28.1796813 106.9375,29.4140625 C106.9375,30.0000029 107.173826,30.4687482 107.646484,30.8203125 C108.119143,31.1718768 108.753902,31.3476562 109.550781,31.3476562 Z M109.117188,33.1171875 C107.835931,33.1171875 106.804691,32.7773471 106.023438,32.0976562 C105.242184,31.4179654 104.851562,30.5195368 104.851562,29.4023438 C104.851562,27.1757701 106.429672,25.9648447 109.585938,25.7695312 L113.125,25.5585938 L113.125,24.5039062 C113.125,23.7148398 112.875003,23.1113302 112.375,22.6933594 C111.874998,22.2753885 111.160161,22.0664062 110.230469,22.0664062 C109.49609,22.0664062 108.876956,22.2402326 108.373047,22.5878906 C107.869138,22.9355486 107.554688,23.4101532 107.429688,24.0117188 L105.472656,24.0117188 C105.503906,22.9414009 105.978511,22.0468786 106.896484,21.328125 C107.814458,20.6093714 108.933587,20.25 110.253906,20.25 C111.746101,20.25 112.937496,20.6191369 113.828125,21.3574219 C114.718754,22.0957068 115.164062,23.0859313 115.164062,24.328125 L115.164062,33 L113.230469,33 L113.230469,30.8085938 L113.183594,30.8085938 C112.824217,31.5117223 112.277347,32.0722635 111.542969,32.4902344 C110.80859,32.9082052 110.000004,33.1171875 109.117188,33.1171875 Z M124.292969,20.25 C125.902352,20.25 127.207026,20.8398379 128.207031,22.0195312 C129.207036,23.1992246 129.707031,24.7538966 129.707031,26.6835938 C129.707031,28.6132909 129.210942,30.1679629 128.21875,31.3476562 C127.226558,32.5273496 125.933602,33.1171875 124.339844,33.1171875 C123.441402,33.1171875 122.644535,32.9277363 121.949219,32.5488281 C121.253903,32.16992 120.707033,31.6367222 120.308594,30.9492188 L120.261719,30.9492188 L120.261719,37.21875 L118.222656,37.21875 L118.222656,20.3671875 L120.15625,20.3671875 L120.15625,22.4179688 L120.203125,22.4179688 C120.570314,21.7617155 121.124996,21.2363301 121.867188,20.8417969 C122.609379,20.4472637 123.417964,20.25 124.292969,20.25 Z M123.917969,31.3007812 C125.035162,31.3007812 125.931637,30.8808636 126.607422,30.0410156 C127.283207,29.2011677 127.621094,28.0820382 127.621094,26.6835938 C127.621094,25.2851493 127.283207,24.1660198 126.607422,23.3261719 C125.931637,22.4863239 125.035162,22.0664062 123.917969,22.0664062 C122.832026,22.0664062 121.949222,22.4921832 121.269531,23.34375 C120.58984,24.1953168 120.25,25.3085869 120.25,26.6835938 C120.25,28.0586006 120.58984,29.1718707 121.269531,30.0234375 C121.949222,30.8750043 122.832026,31.3007812 123.917969,31.3007812 Z M136.328125,31.3476562 C137.35938,31.3476562 138.212887,31.0488311 138.888672,30.4511719 C139.564457,29.8535126 139.902344,29.101567 139.902344,28.1953125 L139.902344,27.1757812 L136.597656,27.3867188 C134.675772,27.5039068 133.714844,28.1796813 133.714844,29.4140625 C133.714844,30.0000029 133.95117,30.4687482 134.423828,30.8203125 C134.896487,31.1718768 135.531246,31.3476562 136.328125,31.3476562 Z M135.894531,33.1171875 C134.613275,33.1171875 133.582035,32.7773471 132.800781,32.0976562 C132.019527,31.4179654 131.628906,30.5195368 131.628906,29.4023438 C131.628906,27.1757701 133.207015,25.9648447 136.363281,25.7695312 L139.902344,25.5585938 L139.902344,24.5039062 C139.902344,23.7148398 139.652346,23.1113302 139.152344,22.6933594 C138.652341,22.2753885 137.937505,22.0664062 137.007812,22.0664062 C136.273434,22.0664062 135.654299,22.2402326 135.150391,22.5878906 C134.646482,22.9355486 134.332032,23.4101532 134.207031,24.0117188 L132.25,24.0117188 C132.28125,22.9414009 132.755855,22.0468786 133.673828,21.328125 C134.591801,20.6093714 135.710931,20.25 137.03125,20.25 C138.523445,20.25 139.714839,20.6191369 140.605469,21.3574219 C141.496098,22.0957068 141.941406,23.0859313 141.941406,24.328125 L141.941406,33 L140.007812,33 L140.007812,30.8085938 L139.960938,30.8085938 C139.601561,31.5117223 139.054691,32.0722635 138.320312,32.4902344 C137.585934,32.9082052 136.777348,33.1171875 135.894531,33.1171875 Z M145.667969,17.5195312 L145.667969,20.3671875 L143.910156,20.3671875 L143.910156,22.0546875 L145.667969,22.0546875 L145.667969,29.71875 C145.667969,30.9296936 145.912107,31.7949193 146.400391,32.3144531 C146.888674,32.833987 147.703119,33.09375 148.84375,33.09375 C149.085939,33.09375 149.333983,33.0839845 149.587891,33.0644531 C149.841798,33.0449218 150.031249,33.0195314 150.15625,32.9882812 L150.15625,31.265625 C150.085937,31.2734375 149.953126,31.2851562 149.757812,31.3007812 C149.562499,31.3164063 149.402344,31.3242188 149.277344,31.3242188 C148.738279,31.3242188 148.341798,31.1875014 148.087891,30.9140625 C147.833983,30.6406236 147.707031,30.2148466 147.707031,29.6367188 L147.707031,22.0546875 L150.167969,22.0546875 L150.167969,20.3671875 L147.707031,20.3671875 L147.707031,17.5195312 L145.667969,17.5195312 Z M154.9375,26.015625 L154.9375,15.3515625 L152.898438,15.3515625 L152.898438,33 L154.9375,33 L154.9375,28.2070312 L156.132812,27.0820312 L160.878906,33 L163.246094,33 L157.5625,25.828125 L163.082031,20.3671875 L160.597656,20.3671875 L160.023438,20.9355469 C159.640623,21.314455 159.169925,21.7851534 158.611328,22.3476562 C158.052732,22.9101591 157.49219,23.4726534 156.929688,24.0351562 C156.367185,24.5976591 155.894533,25.0683575 155.511719,25.4472656 L154.9375,26.015625 Z M169.28125,31.3476562 C170.312505,31.3476562 171.166012,31.0488311 171.841797,30.4511719 C172.517582,29.8535126 172.855469,29.101567 172.855469,28.1953125 L172.855469,27.1757812 L169.550781,27.3867188 C167.628897,27.5039068 166.667969,28.1796813 166.667969,29.4140625 C166.667969,30.0000029 166.904295,30.4687482 167.376953,30.8203125 C167.849612,31.1718768 168.484371,31.3476562 169.28125,31.3476562 Z M168.847656,33.1171875 C167.5664,33.1171875 166.53516,32.7773471 165.753906,32.0976562 C164.972652,31.4179654 164.582031,30.5195368 164.582031,29.4023438 C164.582031,27.1757701 166.16014,25.9648447 169.316406,25.7695312 L172.855469,25.5585938 L172.855469,24.5039062 C172.855469,23.7148398 172.605471,23.1113302 172.105469,22.6933594 C171.605466,22.2753885 170.89063,22.0664062 169.960938,22.0664062 C169.226559,22.0664062 168.607424,22.2402326 168.103516,22.5878906 C167.599607,22.9355486 167.285157,23.4101532 167.160156,24.0117188 L165.203125,24.0117188 C165.234375,22.9414009 165.70898,22.0468786 166.626953,21.328125 C167.544926,20.6093714 168.664056,20.25 169.984375,20.25 C171.47657,20.25 172.667964,20.6191369 173.558594,21.3574219 C174.449223,22.0957068 174.894531,23.0859313 174.894531,24.328125 L174.894531,33 L172.960938,33 L172.960938,30.8085938 L172.914062,30.8085938 C172.554686,31.5117223 172.007816,32.0722635 171.273438,32.4902344 C170.539059,32.9082052 169.730473,33.1171875 168.847656,33.1171875 Z M177.953125,33 L179.992188,33 L179.992188,25.6640625 C179.992188,24.5781196 180.287106,23.7070345 180.876953,23.0507812 C181.4668,22.394528 182.281245,22.0664062 183.320312,22.0664062 C184.320317,22.0664062 185.062498,22.339841 185.546875,22.8867188 C186.031252,23.4335965 186.273438,24.2226511 186.273438,25.2539062 L186.273438,33 L188.3125,33 L188.3125,24.9023438 C188.3125,23.4648366 187.929691,22.3300823 187.164062,21.4980469 C186.398434,20.6660115 185.320319,20.25 183.929688,20.25 C182.95312,20.25 182.140628,20.4316388 181.492188,20.7949219 C180.843747,21.1582049 180.320314,21.6992152 179.921875,22.4179688 L179.875,22.4179688 L179.875,20.3671875 L177.953125,20.3671875 L177.953125,33 Z M33.53125,41.9648438 L33.53125,48.4453125 L37.6914062,48.4453125 C38.7773492,48.4453125 39.6152314,48.1640653 40.2050781,47.6015625 C40.7949248,47.0390597 41.0898438,46.2382864 41.0898438,45.1992188 C41.0898438,44.1835887 40.7812531,43.3906279 40.1640625,42.8203125 C39.5468719,42.2499971 38.6914117,41.9648438 37.5976562,41.9648438 L33.53125,41.9648438 Z M33.53125,50.3085938 L33.53125,57 L31.421875,57 L31.421875,40.0898438 L37.8789062,40.0898438 C39.5117269,40.0898438 40.8183545,40.5488235 41.7988281,41.4667969 C42.7793018,42.3847702 43.2695312,43.6054611 43.2695312,45.1289062 C43.2695312,46.3085996 42.968753,47.3281207 42.3671875,48.1875 C41.765622,49.0468793 40.9335991,49.6445296 39.8710938,49.9804688 L43.7851562,57 L41.3125,57 L37.6914062,50.3085938 L33.53125,50.3085938 Z M51.0507812,46.0429688 C50.0585888,46.0429688 49.2363314,46.3710905 48.5839844,47.0273438 C47.9316374,47.683597 47.5703129,48.5468696 47.5,49.6171875 L54.4492188,49.6171875 C54.4257811,48.5468696 54.1035187,47.683597 53.4824219,47.0273438 C52.861325,46.3710905 52.0507863,46.0429688 51.0507812,46.0429688 Z M54.4023438,53.390625 L56.4179688,53.390625 C56.2460929,54.4765679 55.6679737,55.3691371 54.6835938,56.0683594 C53.6992138,56.7675816 52.5312568,57.1171875 51.1796875,57.1171875 C49.4062411,57.1171875 47.9980521,56.5410214 46.9550781,55.3886719 C45.9121042,54.2363224 45.390625,52.6836035 45.390625,50.7304688 C45.390625,48.7695214 45.9101511,47.1992246 46.9492188,46.0195312 C47.9882864,44.8398379 49.3671789,44.25 51.0859375,44.25 C52.7734459,44.25 54.1093701,44.804682 55.09375,45.9140625 C56.0781299,47.023443 56.5703125,48.5351467 56.5703125,50.4492188 L56.5703125,51.2460938 L47.5,51.2460938 L47.5,51.3632812 C47.5,52.5664123 47.8398404,53.5273402 48.5195312,54.2460938 C49.1992221,54.9648473 50.1015569,55.3242188 51.2265625,55.3242188 C52.0156289,55.3242188 52.6972628,55.1503924 53.2714844,54.8027344 C53.845706,54.4550764 54.2226554,53.984378 54.4023438,53.390625 Z M75.0507812,44.3671875 L73.0351562,44.3671875 L70.46875,54.6914062 L70.421875,54.6914062 L67.5273438,44.3671875 L65.5585938,44.3671875 L62.6640625,54.6914062 L62.6171875,54.6914062 L60.0507812,44.3671875 L58.0351562,44.3671875 L61.5742188,57 L63.6367188,57 L66.5195312,47.1796875 L66.5664062,47.1796875 L69.4492188,57 L71.5117188,57 L71.8691406,55.7226562 C72.1074231,54.8710895 72.402342,53.8183656 72.7539062,52.5644531 L73.8085938,48.8027344 C74.160158,47.5488219 74.4550769,46.496098 74.6933594,45.6445312 L75.0507812,44.3671875 Z M81.2617188,55.3476562 C82.2929739,55.3476562 83.146481,55.0488311 83.8222656,54.4511719 C84.4980503,53.8535126 84.8359375,53.101567 84.8359375,52.1953125 L84.8359375,51.1757812 L81.53125,51.3867188 C79.6093654,51.5039068 78.6484375,52.1796813 78.6484375,53.4140625 C78.6484375,54.0000029 78.8847633,54.4687482 79.3574219,54.8203125 C79.8300805,55.1718768 80.4648398,55.3476562 81.2617188,55.3476562 Z M80.828125,57.1171875 C79.5468686,57.1171875 78.5156289,56.7773471 77.734375,56.0976562 C76.9531211,55.4179654 76.5625,54.5195368 76.5625,53.4023438 C76.5625,51.1757701 78.1406092,49.9648447 81.296875,49.7695312 L84.8359375,49.5585938 L84.8359375,48.5039062 C84.8359375,47.7148398 84.58594,47.1113302 84.0859375,46.6933594 C83.585935,46.2753885 82.8710984,46.0664062 81.9414062,46.0664062 C81.2070276,46.0664062 80.5878931,46.2402326 80.0839844,46.5878906 C79.5800756,46.9355486 79.2656256,47.4101532 79.140625,48.0117188 L77.1835938,48.0117188 C77.2148439,46.9414009 77.6894485,46.0468786 78.6074219,45.328125 C79.5253952,44.6093714 80.6445246,44.25 81.9648438,44.25 C83.4570387,44.25 84.648433,44.6191369 85.5390625,45.3574219 C86.429692,46.0957068 86.875,47.0859313 86.875,48.328125 L86.875,57 L84.9414062,57 L84.9414062,54.8085938 L84.8945312,54.8085938 C84.5351545,55.5117223 83.9882849,56.0722635 83.2539062,56.4902344 C82.5195276,56.9082052 81.7109419,57.1171875 80.828125,57.1171875 Z M89.9335938,57 L91.9726562,57 L91.9726562,49.1835938 C91.9726562,48.2929643 92.2207006,47.5742215 92.7167969,47.0273438 C93.2128931,46.480466 93.8710896,46.2070312 94.6914062,46.2070312 C94.9414075,46.2070312 95.1699208,46.2187499 95.3769531,46.2421875 C95.5839854,46.2656251 95.7265621,46.2929686 95.8046875,46.3242188 L95.8046875,44.3203125 C95.7187496,44.3046874 95.6015632,44.2890626 95.453125,44.2734375 C95.3046868,44.2578124 95.1406259,44.25 94.9609375,44.25 C94.2265588,44.25 93.5800809,44.4453105 93.0214844,44.8359375 C92.4628878,45.2265645 92.0898447,45.7539029 91.9023438,46.4179688 L91.8554688,46.4179688 L91.8554688,44.3671875 L89.9335938,44.3671875 L89.9335938,57 Z M102.683594,57.1171875 C101.097648,57.1171875 99.7988332,56.5273496 98.7871094,55.3476562 C97.7753856,54.1679629 97.2695312,52.6132909 97.2695312,50.6835938 C97.2695312,48.7538966 97.7714794,47.1992246 98.7753906,46.0195312 C99.7793019,44.8398379 101.066398,44.25 102.636719,44.25 C103.542973,44.25 104.3457,44.4374981 105.044922,44.8125 C105.744144,45.1875019 106.285154,45.7226528 106.667969,46.4179688 L106.714844,46.4179688 L106.714844,39.3515625 L108.753906,39.3515625 L108.753906,57 L106.808594,57 L106.808594,54.8671875 L106.773438,54.8671875 C106.367185,55.5937536 105.812504,56.1503887 105.109375,56.5371094 C104.406246,56.9238301 103.597661,57.1171875 102.683594,57.1171875 Z M103.046875,46.0664062 C101.937494,46.0664062 101.044925,46.4863239 100.369141,47.3261719 C99.693356,48.1660198 99.3554688,49.2851493 99.3554688,50.6835938 C99.3554688,52.0820382 99.693356,53.2011677 100.369141,54.0410156 C101.044925,54.8808636 101.937494,55.3007812 103.046875,55.3007812 C104.14063,55.3007812 105.02734,54.8750043 105.707031,54.0234375 C106.386722,53.1718707 106.726562,52.0586006 106.726562,50.6835938 C106.726562,49.3085869 106.386722,48.1953168 105.707031,47.34375 C105.02734,46.4921832 104.14063,46.0664062 103.046875,46.0664062 Z M118.199219,57 L120.238281,57 L120.238281,49.734375 C120.238281,48.6249945 120.546872,47.7363315 121.164062,47.0683594 C121.781253,46.4003873 122.621088,46.0664062 123.683594,46.0664062 C124.683599,46.0664062 125.437497,46.3535128 125.945312,46.9277344 C126.453128,47.501956 126.707031,48.2929637 126.707031,49.3007812 L126.707031,57 L128.746094,57 L128.746094,48.9375 C128.746094,47.531243 128.349613,46.3984418 127.556641,45.5390625 C126.763668,44.6796832 125.675788,44.25 124.292969,44.25 C123.324214,44.25 122.511722,44.4316388 121.855469,44.7949219 C121.199215,45.1582049 120.675783,45.6992152 120.285156,46.4179688 L120.238281,46.4179688 L120.238281,39.3515625 L118.199219,39.3515625 L118.199219,57 Z M131.921875,57 L133.960938,57 L133.960938,44.3671875 L131.921875,44.3671875 L131.921875,57 Z M132.941406,42.328125 C133.300783,42.328125 133.605468,42.2011731 133.855469,41.9472656 C134.10547,41.6933581 134.230469,41.3906268 134.230469,41.0390625 C134.230469,40.6796857 134.10547,40.3750012 133.855469,40.125 C133.605468,39.8749988 133.300783,39.75 132.941406,39.75 C132.589842,39.75 132.287111,39.8749988 132.033203,40.125 C131.779296,40.3750012 131.652344,40.6796857 131.652344,41.0390625 C131.652344,41.3906268 131.779296,41.6933581 132.033203,41.9472656 C132.287111,42.2011731 132.589842,42.328125 132.941406,42.328125 Z M137.195312,57 L139.234375,57 L139.234375,49.6640625 C139.234375,48.5781196 139.529294,47.7070345 140.119141,47.0507812 C140.708987,46.394528 141.523432,46.0664062 142.5625,46.0664062 C143.562505,46.0664062 144.304685,46.339841 144.789062,46.8867188 C145.27344,47.4335965 145.515625,48.2226511 145.515625,49.2539062 L145.515625,57 L147.554688,57 L147.554688,48.9023438 C147.554688,47.4648366 147.171879,46.3300823 146.40625,45.4980469 C145.640621,44.6660115 144.562507,44.25 143.171875,44.25 C142.195308,44.25 141.382816,44.4316388 140.734375,44.7949219 C140.085934,45.1582049 139.562502,45.6992152 139.164062,46.4179688 L139.117188,46.4179688 L139.117188,44.3671875 L137.195312,44.3671875 L137.195312,57 Z M155.722656,55.1835938 C156.832037,55.1835938 157.728512,54.7636761 158.412109,53.9238281 C159.095707,53.0839802 159.4375,51.988288 159.4375,50.6367188 C159.4375,49.277337 159.095707,48.1757855 158.412109,47.3320312 C157.728512,46.488277 156.832037,46.0664062 155.722656,46.0664062 C154.621088,46.0664062 153.738285,46.4824177 153.074219,47.3144531 C152.410153,48.1464885 152.078125,49.2538993 152.078125,50.6367188 C152.078125,52.0117256 152.410153,53.1132771 153.074219,53.9414062 C153.738285,54.7695354 154.621088,55.1835938 155.722656,55.1835938 Z M155.792969,61.7578125 C154.425774,61.7578125 153.246099,61.4082066 152.253906,60.7089844 C151.261714,60.0097621 150.675782,59.1250054 150.496094,58.0546875 L152.605469,58.0546875 C152.808595,58.6406279 153.207028,59.1113263 153.800781,59.4667969 C154.394534,59.8222674 155.08984,60 155.886719,60 C156.988287,60 157.855466,59.7070342 158.488281,59.1210938 C159.121097,58.5351533 159.4375,57.7656298 159.4375,56.8125 L159.4375,54.8320312 L159.390625,54.8320312 C158.992186,55.5195347 158.437504,56.0527325 157.726562,56.4316406 C157.015621,56.8105488 156.218754,57 155.335938,57 C153.734367,57 152.443364,56.4160215 151.462891,55.2480469 C150.482417,54.0800723 149.992188,52.5429783 149.992188,50.6367188 C149.992188,48.7070216 150.48437,47.1601621 151.46875,45.9960938 C152.45313,44.8320254 153.757804,44.25 155.382812,44.25 C156.273442,44.25 157.076168,44.4374981 157.791016,44.8125 C158.505863,45.1875019 159.074217,45.7226528 159.496094,46.4179688 L159.53125,46.4179688 L159.53125,44.3671875 L161.476562,44.3671875 L161.476562,56.7421875 C161.476562,58.2500075 160.962896,59.462886 159.935547,60.3808594 C158.908198,61.2988327 157.527352,61.7578125 155.792969,61.7578125 Z M169.703125,55.1835938 C170.812506,55.1835938 171.708981,54.7636761 172.392578,53.9238281 C173.076175,53.0839802 173.417969,51.988288 173.417969,50.6367188 C173.417969,49.277337 173.076175,48.1757855 172.392578,47.3320312 C171.708981,46.488277 170.812506,46.0664062 169.703125,46.0664062 C168.601557,46.0664062 167.718753,46.4824177 167.054688,47.3144531 C166.390622,48.1464885 166.058594,49.2538993 166.058594,50.6367188 C166.058594,52.0117256 166.390622,53.1132771 167.054688,53.9414062 C167.718753,54.7695354 168.601557,55.1835938 169.703125,55.1835938 Z M169.773438,61.7578125 C168.406243,61.7578125 167.226567,61.4082066 166.234375,60.7089844 C165.242183,60.0097621 164.656251,59.1250054 164.476562,58.0546875 L166.585938,58.0546875 C166.789064,58.6406279 167.187497,59.1113263 167.78125,59.4667969 C168.375003,59.8222674 169.070309,60 169.867188,60 C170.968756,60 171.835934,59.7070342 172.46875,59.1210938 C173.101566,58.5351533 173.417969,57.7656298 173.417969,56.8125 L173.417969,54.8320312 L173.371094,54.8320312 C172.972654,55.5195347 172.417972,56.0527325 171.707031,56.4316406 C170.99609,56.8105488 170.199223,57 169.316406,57 C167.714836,57 166.423833,56.4160215 165.443359,55.2480469 C164.462886,54.0800723 163.972656,52.5429783 163.972656,50.6367188 C163.972656,48.7070216 164.464839,47.1601621 165.449219,45.9960938 C166.433599,44.8320254 167.738273,44.25 169.363281,44.25 C170.253911,44.25 171.056637,44.4374981 171.771484,44.8125 C172.486332,45.1875019 173.054685,45.7226528 173.476562,46.4179688 L173.511719,46.4179688 L173.511719,44.3671875 L175.457031,44.3671875 L175.457031,56.7421875 C175.457031,58.2500075 174.943365,59.462886 173.916016,60.3808594 C172.888667,61.2988327 171.507821,61.7578125 169.773438,61.7578125 Z M182.699219,55.3476562 C183.730474,55.3476562 184.583981,55.0488311 185.259766,54.4511719 C185.93555,53.8535126 186.273438,53.101567 186.273438,52.1953125 L186.273438,51.1757812 L182.96875,51.3867188 C181.046865,51.5039068 180.085938,52.1796813 180.085938,53.4140625 C180.085938,54.0000029 180.322263,54.4687482 180.794922,54.8203125 C181.26758,55.1718768 181.90234,55.3476562 182.699219,55.3476562 Z M182.265625,57.1171875 C180.984369,57.1171875 179.953129,56.7773471 179.171875,56.0976562 C178.390621,55.4179654 178,54.5195368 178,53.4023438 C178,51.1757701 179.578109,49.9648447 182.734375,49.7695312 L186.273438,49.5585938 L186.273438,48.5039062 C186.273438,47.7148398 186.02344,47.1113302 185.523438,46.6933594 C185.023435,46.2753885 184.308598,46.0664062 183.378906,46.0664062 C182.644528,46.0664062 182.025393,46.2402326 181.521484,46.5878906 C181.017576,46.9355486 180.703126,47.4101532 180.578125,48.0117188 L178.621094,48.0117188 C178.652344,46.9414009 179.126949,46.0468786 180.044922,45.328125 C180.962895,44.6093714 182.082025,44.25 183.402344,44.25 C184.894539,44.25 186.085933,44.6191369 186.976562,45.3574219 C187.867192,46.0957068 188.3125,47.0859313 188.3125,48.328125 L188.3125,57 L186.378906,57 L186.378906,54.8085938 L186.332031,54.8085938 C185.972654,55.5117223 185.425785,56.0722635 184.691406,56.4902344 C183.957028,56.9082052 183.148442,57.1171875 182.265625,57.1171875 Z" id="Dapatkan-Reward-hing"></path>
                    <path d="M221.832031,63.84375 C215.902314,63.84375 211.302751,61.4765862 208.033203,56.7421875 C204.763656,52.0077888 203.128906,45.6328526 203.128906,37.6171875 C203.128906,29.6718353 204.775374,23.3203363 208.068359,18.5625 C211.361345,13.8046637 215.949189,11.4257812 221.832031,11.4257812 C227.714873,11.4257812 232.290999,13.7929451 235.560547,18.5273438 C238.830094,23.2617424 240.464844,29.6132414 240.464844,37.5820312 C240.464844,45.5976963 238.835954,51.9784919 235.578125,56.7246094 C232.320296,61.4707269 227.738311,63.84375 221.832031,63.84375 Z M221.832031,58.3242188 C225.792989,58.3242188 228.828114,56.4550968 230.9375,52.7167969 C233.046886,48.9784969 234.101562,43.9453441 234.101562,37.6171875 C234.101562,31.3827813 233.035167,26.3847844 230.902344,22.6230469 C228.769521,18.8613093 225.746113,16.9804688 221.832031,16.9804688 C217.917949,16.9804688 214.882823,18.8671686 212.726562,22.640625 C210.570302,26.4140814 209.492188,31.3945003 209.492188,37.5820312 C209.492188,43.9101879 210.558583,48.9492 212.691406,52.6992188 C214.824229,56.4492375 217.871074,58.3242188 221.832031,58.3242188 Z M251.855469,72.0351562 L257.128906,55.8984375 L250.625,55.8984375 L247.109375,72.0351562 L251.855469,72.0351562 Z M283.671875,63.84375 C288.968776,63.84375 293.304671,62.2265787 296.679688,58.9921875 C300.054704,55.7577963 301.742188,51.5976817 301.742188,46.5117188 C301.742188,41.5898191 300.166031,37.5293129 297.013672,34.3300781 C293.861312,31.1308434 289.847681,29.53125 284.972656,29.53125 C282.558582,29.53125 280.349619,29.9648394 278.345703,30.8320313 C276.341787,31.6992231 274.765631,32.8945236 273.617188,34.4179688 L273.476562,34.4179688 L275.023438,17.8945312 L298.859375,17.8945312 L298.859375,12.2695312 L269.820312,12.2695312 L267.042969,40.6757812 L272.984375,40.6757812 C275.210949,36.8788873 278.832006,34.9804688 283.847656,34.9804688 C287.222673,34.9804688 289.99413,36.0761609 292.162109,38.2675781 C294.330089,40.4589953 295.414062,43.2656079 295.414062,46.6875 C295.414062,50.0859545 294.330089,52.8691298 292.162109,55.0371094 C289.99413,57.205089 287.187517,58.2890625 283.742188,58.2890625 C280.695297,58.2890625 278.128917,57.4394616 276.042969,55.7402344 C273.957021,54.0410071 272.773439,51.8437635 272.492188,49.1484375 L266.269531,49.1484375 C266.527345,53.4609591 268.279281,56.9882675 271.525391,59.7304688 C274.771501,62.47267 278.820288,63.84375 283.671875,63.84375 Z" id="0,5"></path>
                    <path d="M340.496094,44.6289062 C340.496094,46.5390721 340.0127,48.0712833 339.045898,49.2255859 C338.079097,50.3798886 336.792977,50.9570312 335.1875,50.9570312 C333.582023,50.9570312 332.292974,50.3798886 331.320312,49.2255859 C330.347651,48.0712833 329.861328,46.5390721 329.861328,44.6289062 C329.861328,42.7187404 330.347651,41.1894589 331.320312,40.0410156 C332.292974,38.8925724 333.582023,38.3183594 335.1875,38.3183594 C336.792977,38.3183594 338.079097,38.8925724 339.045898,40.0410156 C340.0127,41.1894589 340.496094,42.7187404 340.496094,44.6289062 Z M335.1875,48.8125 C335.960941,48.8125 336.57031,48.4375038 337.015625,47.6875 C337.46094,46.9374963 337.683594,45.9179752 337.683594,44.6289062 C337.683594,43.3281185 337.466799,42.3115271 337.033203,41.5791016 C336.599607,40.846676 335.984379,40.4804688 335.1875,40.4804688 C334.414059,40.4804688 333.80176,40.8525353 333.350586,41.5966797 C332.899412,42.340824 332.673828,43.3515561 332.673828,44.6289062 C332.673828,45.9062564 332.899412,46.9228478 333.350586,47.6787109 C333.80176,48.4345741 334.414059,48.8125 335.1875,48.8125 Z M334.414062,64 L331.355469,64 L349.917969,38.6347656 L352.941406,38.6347656 L334.414062,64 Z M354.435547,57.953125 C354.435547,59.8632908 353.952153,61.395502 352.985352,62.5498047 C352.01855,63.7041073 350.73243,64.28125 349.126953,64.28125 C347.521476,64.28125 346.232427,63.7041073 345.259766,62.5498047 C344.287105,61.395502 343.800781,59.8632908 343.800781,57.953125 C343.800781,56.0429592 344.287105,54.5136776 345.259766,53.3652344 C346.232427,52.2167911 347.521476,51.6425781 349.126953,51.6425781 C350.73243,51.6425781 352.01855,52.2167911 352.985352,53.3652344 C353.952153,54.5136776 354.435547,56.0429592 354.435547,57.953125 Z M349.126953,62.1367188 C349.900394,62.1367188 350.509763,61.7617225 350.955078,61.0117188 C351.400393,60.261715 351.623047,59.2421939 351.623047,57.953125 C351.623047,56.6523372 351.406252,55.6357458 350.972656,54.9033203 C350.53906,54.1708948 349.923832,53.8046875 349.126953,53.8046875 C348.353512,53.8046875 347.741213,54.1767541 347.290039,54.9208984 C346.838865,55.6650428 346.613281,56.6757749 346.613281,57.953125 C346.613281,59.2304751 346.838865,60.2470665 347.290039,61.0029297 C347.741213,61.7587928 348.353512,62.1367188 349.126953,62.1367188 Z" id="%"></path>
                </g>
            </g>
        </g>
    </g>
</svg>