<?xml version="1.0" encoding="UTF-8"?>
<svg width="37px" height="25px" viewBox="0 0 37 25" version="1.1" xmlns="http://www.w3.org/2000/svg" xmlns:xlink="http://www.w3.org/1999/xlink">
    <!-- Generator: Sketch 47.1 (45422) - http://www.bohemiancoding.com/sketch -->
    <title>plafon</title>
    <desc>Created with Sketch.</desc>
    <defs></defs>
    <g id="Homepage" stroke="none" stroke-width="1" fill="none" fill-rule="evenodd">
        <g id="Homepage-(meminjam)---Desktop-HD" transform="translate(-302.000000, -1309.000000)">
            <g id="meminjam" transform="translate(0.000000, 1002.000000)">
                <g id="sekilas-copy-2">
                    <g id="plafon" transform="translate(275.000000, 274.000000)">
                        <circle id="Oval" cx="45" cy="45" r="45"></circle>
                        <g id="bills" transform="translate(27.000000, 33.000000)" fill="#FE8B0F">
                            <path d="M4.64777815,14.7398844 C4.15797416,14.7398844 3.75722543,15.1300578 3.75722543,15.6069364 C3.75722543,16.083815 4.15797416,16.4739884 4.64777815,16.4739884 L8.06898485,16.4739884 C8.55878885,16.4739884 8.95953757,16.083815 8.95953757,15.6069364 C8.95953757,15.1300578 8.55878885,14.7398844 8.06898485,14.7398844 L4.64777815,14.7398844 Z" id="Shape" fill-rule="nonzero"></path>
                            <path d="M22.711362,16.4739884 L26.1325687,16.4739884 C26.6223727,16.4739884 27.0231214,16.083815 27.0231214,15.6069364 C27.0231214,15.1300578 26.6223727,14.7398844 26.1325687,14.7398844 L22.711362,14.7398844 C22.221558,14.7398844 21.8208092,15.1300578 21.8208092,15.6069364 C21.8208092,16.083815 22.221558,16.4739884 22.711362,16.4739884 Z" id="Shape" fill-rule="nonzero"></path>
                            <path d="M34.275137,0 L8.17997379,0 C6.84156857,0 5.74990845,1.09118087 5.74990845,2.42899851 L5.74990845,5.94917788 L1.79450979,5.94917788 C0.807529405,5.94917788 0,6.75635277 0,7.74289985 L0,23.206278 C0,24.1928251 0.807529405,25 1.79450979,25 L29.1607841,25 C30.1477645,25 30.9552939,24.1928251 30.9552939,23.206278 L30.9552939,19.0508221 L34.275137,19.0508221 C35.6135422,19.0508221 36.7052023,17.9596413 36.7052023,16.6218236 L36.7052023,2.42152466 C36.6977252,1.08370703 35.6135422,0 34.275137,0 Z M24.1361567,7.74289985 C24.338039,10.4334828 26.4764965,12.5859492 29.1607841,12.8176383 L29.1607841,18.1838565 C26.4690194,18.3856502 24.3156076,20.5231689 24.0838168,23.206278 L6.8191372,23.206278 C6.61725485,20.5156951 4.47879735,18.3632287 1.79450979,18.1315396 L1.79450979,12.7653214 C4.48627447,12.5635277 6.63968622,10.426009 6.87147707,7.74289985 L24.1361567,7.74289985 L24.1361567,7.74289985 Z M25.9306665,7.74289985 L29.1533069,7.74289985 L29.1533069,11.0164425 C27.4634769,10.7922272 26.1250717,9.43946188 25.9306665,7.74289985 Z M5.06201303,7.74289985 C4.84517643,9.43198804 3.49181696,10.7772795 1.78703267,10.9641256 L1.78703267,7.74289985 L5.06201303,7.74289985 Z M1.79450979,19.9327354 C3.48433984,20.1494768 4.83022218,21.5022422 5.01715029,23.206278 L1.79450979,23.206278 L1.79450979,19.9327354 Z M25.8858037,23.1988042 C26.1026403,21.509716 27.4559998,20.1644245 29.1607841,19.9775785 L29.1607841,23.1988042 L25.8858037,23.1988042 Z M34.9032154,16.6218236 C34.9032154,16.9730942 34.6190847,17.2571001 34.2676598,17.2571001 L30.9478167,17.2571001 L30.9478167,7.74289985 C30.9478167,6.75635277 30.1402873,5.94917788 29.1533069,5.94917788 L7.53694111,5.94917788 L7.53694111,2.42899851 C7.53694111,2.07772795 7.82107183,1.79372197 8.17249666,1.79372197 L34.2676598,1.79372197 C34.6190847,1.79372197 34.9032154,2.07772795 34.9032154,2.42899851 L34.9032154,16.6218236 Z" id="Shape" fill-rule="nonzero"></path>
                            <path d="M11.5514451,17.9190751 C11.5005778,17.9190751 11.4566476,17.9005782 11.4196532,17.8635838 C11.3826588,17.8265894 11.3641618,17.7826592 11.3641618,17.7317919 L11.3641618,13.2508671 C11.3641618,13.1999997 11.3826588,13.1560695 11.4196532,13.1190751 C11.4566476,13.0820807 11.5005778,13.0635838 11.5514451,13.0635838 L13.6046243,13.0635838 C14.2705236,13.0635838 14.7907496,13.2127153 15.1653179,13.5109827 C15.5398863,13.80925 15.7271676,14.2219627 15.7271676,14.7491329 C15.7271676,15.0497125 15.6601163,15.3144497 15.5260116,15.5433526 C15.3919068,15.7722555 15.2092497,15.9606929 14.9780347,16.1086705 L15.8312139,17.6901734 C15.8450868,17.7179192 15.8520231,17.7433525 15.8520231,17.766474 C15.8520231,17.8080927 15.8369944,17.8439305 15.8069364,17.8739884 C15.7768785,17.9040464 15.7410407,17.9190751 15.699422,17.9190751 L14.2774566,17.9190751 C14.1942192,17.9190751 14.1283239,17.8994222 14.0797688,17.8601156 C14.0312136,17.8208091 13.997688,17.7780349 13.9791908,17.7317919 L13.382659,16.4069364 L13.0982659,16.4069364 L13.0982659,17.7317919 C13.0982659,17.7826592 13.079769,17.8265894 13.0427746,17.8635838 C13.0057802,17.9005782 12.96185,17.9190751 12.9109827,17.9190751 L11.5514451,17.9190751 Z M13.6046243,15.0890173 C13.7063589,15.0890173 13.7849708,15.0554917 13.8404624,14.9884393 C13.895954,14.9213869 13.9236994,14.8369947 13.9236994,14.7352601 C13.9236994,14.6335255 13.8971101,14.5445091 13.8439306,14.4682081 C13.7907512,14.3919071 13.7109832,14.3537572 13.6046243,14.3537572 L13.0982659,14.3537572 L13.0982659,15.0890173 L13.6046243,15.0890173 Z M16.4901734,19.2369942 C16.4393061,19.2369942 16.3953759,19.2184973 16.3583815,19.1815029 C16.3213871,19.1445085 16.3028902,19.1005783 16.3028902,19.049711 L16.3028902,14.499422 C16.3028902,14.4485547 16.3213871,14.4046245 16.3583815,14.3676301 C16.3953759,14.3306357 16.4393061,14.3121387 16.4901734,14.3121387 L17.6693642,14.3121387 C17.7202315,14.3121387 17.7641617,14.3306357 17.8011561,14.3676301 C17.8381505,14.4046245 17.8566474,14.4485547 17.8566474,14.499422 L17.8566474,14.7075145 C17.9676306,14.5641611 18.1098257,14.4508675 18.283237,14.3676301 C18.4566483,14.2843926 18.6566463,14.2427746 18.883237,14.2427746 C19.3132969,14.2427746 19.6601143,14.372253 19.9236994,14.6312139 C20.1872846,14.8901747 20.3306357,15.2947949 20.3537572,15.8450867 C20.3583815,15.9144512 20.3606936,16.0046237 20.3606936,16.1156069 C20.3606936,16.2312145 20.3583815,16.3236991 20.3537572,16.3930636 C20.33526,16.9156095 20.1907528,17.3121374 19.9202312,17.582659 C19.6497096,17.8531805 19.3040483,17.9884393 18.883237,17.9884393 C18.4624256,17.9884393 18.1549143,17.8497124 17.9606936,17.5722543 L17.9606936,19.049711 C17.9606936,19.1005783 17.9421967,19.1445085 17.9052023,19.1815029 C17.8682079,19.2184973 17.8242777,19.2369942 17.7734104,19.2369942 L16.4901734,19.2369942 Z M18.3075145,16.7468208 C18.4277463,16.7468208 18.5121385,16.7144512 18.5606936,16.649711 C18.6092488,16.5849708 18.6404624,16.4832377 18.6543353,16.3445087 C18.6635839,16.2520227 18.6682081,16.1757228 18.6682081,16.1156069 C18.6682081,16.055491 18.6635839,15.9791912 18.6543353,15.8867052 C18.6404624,15.7479762 18.6092488,15.6462431 18.5606936,15.5815029 C18.5121385,15.5167627 18.4277463,15.4843931 18.3075145,15.4843931 C18.1872826,15.4843931 18.1017344,15.5179187 18.0508671,15.5849711 C17.9999997,15.6520235 17.9699422,15.7526005 17.9606936,15.8867052 C17.9560693,15.9560697 17.9537572,16.041618 17.9537572,16.1433526 C17.9537572,16.2450872 17.9560693,16.3306355 17.9606936,16.4 C17.9699422,16.5156075 18.0011558,16.6023118 18.0543353,16.6601156 C18.1075147,16.7179194 18.1919069,16.7468208 18.3075145,16.7468208 Z" id="Rp"></path>
                        </g>
                    </g>
                </g>
            </g>
        </g>
    </g>
</svg>