<?xml version="1.0" encoding="UTF-8"?>
<svg width="34px" height="34px" viewBox="0 0 34 34" version="1.1" xmlns="http://www.w3.org/2000/svg" xmlns:xlink="http://www.w3.org/1999/xlink">
    <!-- Generator: Sketch 47.1 (45422) - http://www.bohemiancoding.com/sketch -->
    <title>prosescepat</title>
    <desc>Created with Sketch.</desc>
    <defs></defs>
    <g id="Homepage" stroke="none" stroke-width="1" fill="none" fill-rule="evenodd">
        <g id="Homepage-(meminjam)---Desktop-HD" transform="translate(-763.000000, -1304.000000)">
            <g id="meminjam" transform="translate(0.000000, 1002.000000)">
                <g id="sekilas-copy-2">
                    <g id="prosescepat" transform="translate(735.000000, 274.000000)">
                        <circle id="Oval" cx="45" cy="45" r="45"></circle>
                        <g id="rocket" transform="translate(29.000000, 29.000000)" fill-rule="nonzero" fill="#FE8B0F">
                            <path d="M31.805875,0.194625 C31.6671875,0.0569375 31.4689375,-0.0075 31.28825,0.00075 C25.2491875,0.245875 18.1690625,3.537875 12.297,9.39975 C9.005,9.603875 5.4845,11.1785625 2.6475,14.0155 C1.6416875,15.0208125 0.7959375,16.1121875 0.112375,17.248875 C0.1065,17.25675 0.080125,17.300625 0.080125,17.300625 C-0.056625,17.5535625 -0.0185,17.875875 0.195375,18.0886875 C0.2656875,18.1609375 0.3486875,18.2118125 0.4375625,18.2430625 C0.4375625,18.2430625 0.506875,18.2665 0.538125,18.2723125 L5.129,19.5516875 C4.797,20.2763125 4.498125,21.0009375 4.2364375,21.721625 C4.156375,21.956 4.2080625,22.2245625 4.394625,22.4110625 L4.9493125,22.96575 C4.5303125,23.1464375 4.1348125,23.409125 3.788125,23.7558125 C2.4170625,25.1268125 0.13775,31.9999375 0.13775,31.9999375 C0.13775,31.9999375 7.0108125,29.7205625 8.3819375,28.3495 C8.728625,28.0028125 8.9913125,27.6073125 9.1729375,27.188375 L9.589,27.6054375 C9.7755,27.791875 10.045,27.8446875 10.2784375,27.7635625 C10.999125,27.501875 11.72375,27.204 12.4493125,26.871 L13.727625,31.461875 C13.7344375,31.493125 13.7569375,31.5624375 13.7569375,31.5624375 C13.7891875,31.65125 13.84,31.7333125 13.9111875,31.804625 C14.124125,32.0184375 14.4463125,32.0565625 14.69925,31.919875 C14.69925,31.919875 14.74325,31.8935 14.7520625,31.887625 C15.8878125,31.204 16.9795625,30.3583125 17.9844375,29.3525 C20.821375,26.5155625 22.3965625,22.995 22.6006875,19.703 C28.462125,13.830375 31.754125,6.75075 31.9991875,0.7116875 C32.008,0.5315 31.9435,0.3328125 31.805875,0.194625 Z M1.714875,17.2156875 C2.2598125,16.416875 2.88675,15.6614375 3.589875,14.9583125 C4.777375,13.7713125 6.109375,12.8030625 7.548875,12.0818125 C8.6299375,11.539875 9.735375,11.1550625 10.8438125,10.932875 C8.736375,13.2849375 7.017625,15.799625 5.72075,18.330875 L1.714875,17.2156875 Z M7.4395625,27.407125 C7.32925,27.5165 6.6114375,28.13175 3.269625,29.44325 C2.95225,29.56825 2.6378125,29.6884375 2.337,29.801625 C2.4483125,29.5028125 2.5675,29.19325 2.6905,28.8788125 C4.005,25.5281875 4.6211875,24.8094375 4.7315,24.6980625 C5.0928125,24.3376875 5.541125,24.10625 6.01475,24.0310625 L8.1065625,26.123875 C8.0333125,26.5809375 7.8096875,27.0360625 7.4395625,27.407125 Z M19.9190625,24.4510625 C19.197375,25.8905 18.2296875,27.2225625 17.042125,28.4090625 C16.339,29.11225 15.583125,29.7401875 14.7843125,30.2840625 L13.6690625,26.2791875 C16.2003125,24.9823125 18.715,23.263625 21.0675,21.156125 C20.844875,22.2645 20.461125,23.37 19.9190625,24.4510625 Z M25.541125,14.1658125 C24.39375,15.7859375 23.07725,17.340625 21.632,18.7869375 C20.185625,20.2331875 18.63,21.5486875 17.010875,22.696125 C15.4435,23.8074375 13.813625,24.7625 12.167125,25.536 C11.520625,25.8406875 10.874125,26.114125 10.2276875,26.3593125 L5.64075,21.7723125 C5.885875,21.1258125 6.16025,20.4793125 6.4639375,19.832875 C7.237375,18.186375 8.1925,16.5565 9.3038125,14.9895625 C10.45125,13.3695 11.7666875,11.8148125 13.213,10.3685 C14.6593125,8.9226875 16.214,7.60675 17.834125,6.45875 C19.3799375,5.3625625 20.987375,4.41825 22.6124375,3.650125 L28.34975,9.3879375 C27.5821875,11.0124375 26.6378125,12.619375 25.541125,14.1658125 Z M28.928875,8.080875 L23.919125,3.0715625 C26.20625,2.1291875 28.4835625,1.554 30.6223125,1.3776875 C30.4465,3.516875 29.87125,5.79375 28.928875,8.080875 Z" id="Shape" stroke="#FE8B0F"></path>
                            <path d="M19.8243125,9.509125 C19.1115,9.509125 18.4425,9.7869375 17.938625,10.290375 C17.43475,10.79425 17.157375,11.4636875 17.157375,12.176125 C17.157375,12.8885 17.43475,13.5579375 17.938625,14.061875 C18.4425,14.56525 19.1115,14.842625 19.8243125,14.842625 C20.53625,14.842625 21.206125,14.56525 21.710125,14.061875 C22.7491875,13.0218125 22.7491875,11.3299375 21.710125,10.290375 C21.2061875,9.7869375 20.53625,9.509125 19.8243125,9.509125 Z M20.7668125,13.1189375 C20.5148125,13.3709375 20.179875,13.5095625 19.824375,13.5095625 C19.4679375,13.5095625 19.133,13.370875 18.881,13.1189375 C18.629125,12.867 18.4904375,12.532 18.4904375,12.176125 C18.4904375,11.820125 18.6290625,11.4851875 18.881,11.2331875 C19.133,10.98125 19.4679375,10.8425625 19.824375,10.8425625 C20.179875,10.8425625 20.5148125,10.98125 20.7668125,11.2331875 C21.2863125,11.75325 21.2863125,12.5989375 20.7668125,13.1189375 Z" id="Shape"></path>
                            <path d="M14.167125,15.1663125 C13.45425,15.1663125 12.7853125,15.4436875 12.281375,15.9475625 C11.7774375,16.451 11.500125,17.1209375 11.500125,17.832875 C11.500125,18.54575 11.7775,19.2156875 12.281375,19.718625 C12.78525,20.2225 13.45425,20.499875 14.167125,20.499875 C14.8790625,20.499875 15.5489375,20.2225 16.052875,19.718625 C16.5568125,19.2156875 16.834125,18.54575 16.834125,17.832875 C16.834125,17.1209375 16.5568125,16.451 16.052875,15.9475625 C15.5489375,15.4436875 14.879,15.1663125 14.167125,15.1663125 Z M15.1095,18.7761875 C14.8585,19.0281875 14.5235625,19.166875 14.1670625,19.166875 C13.8105625,19.166875 13.4756875,19.0281875 13.2236875,18.7761875 C12.9726875,18.5243125 12.8340625,18.18925 12.8340625,17.832875 C12.8340625,17.477375 12.97275,17.1414375 13.2236875,16.8895 C13.475625,16.6384375 13.8105625,16.499875 14.1670625,16.499875 C14.5235625,16.499875 14.8584375,16.6385 15.1095,16.8904375 C15.3614375,17.1414375 15.500125,17.477375 15.500125,17.832875 C15.500125,18.18925 15.3614375,18.5243125 15.1095,18.7761875 Z" id="Shape"></path>
                        </g>
                    </g>
                </g>
            </g>
        </g>
    </g>
</svg>