<?xml version="1.0" encoding="UTF-8"?>
<svg width="34px" height="44px" viewBox="0 0 34 44" version="1.1" xmlns="http://www.w3.org/2000/svg" xmlns:xlink="http://www.w3.org/1999/xlink">
    <!-- Generator: Sketch 47.1 (45422) - http://www.bohemiancoding.com/sketch -->
    <title>regist-online</title>
    <desc>Created with Sketch.</desc>
    <defs></defs>
    <g id="Homepage" stroke="none" stroke-width="1" fill="none" fill-rule="evenodd">
        <g id="Homepage-(meminjam)---Desktop-HD" transform="translate(-763.000000, -1178.000000)">
            <g id="meminjam" transform="translate(0.000000, 1002.000000)">
                <g id="sekilas-copy-2">
                    <g id="regist-online" transform="translate(735.000000, 152.000000)">
                        <circle id="Oval" cx="45" cy="45" r="45"></circle>
                        <g id="smartphone" transform="translate(29.000000, 25.000000)" fill-rule="nonzero" fill="#FE8B0F">
                            <path d="M20.5,34 C19.1214286,34 18,35.1214286 18,36.5 C18,37.8785714 19.1214286,39 20.5,39 C21.8785714,39 23,37.8785714 23,36.5 C23,35.1214286 21.8778571,34 20.5,34 Z M20.5,37.5714286 C19.9092857,37.5714286 19.4285714,37.0907143 19.4285714,36.5 C19.4285714,35.9092857 19.9092857,35.4285714 20.5,35.4285714 C21.0907143,35.4285714 21.5714286,35.9092857 21.5714286,36.5 C21.5714286,37.0907143 21.0907143,37.5714286 20.5,37.5714286 Z" id="Shape"></path>
                            <path d="M24,26 C25.6545,26 27,24.6545 27,23 C27,21.3455 25.6545,20 24,20 C22.3455,20 21,21.3455 21,23 C21,24.6545 22.34475,26 24,26 Z M24,21.5 C24.82725,21.5 25.5,22.17275 25.5,23 C25.5,23.82725 24.82725,24.5 24,24.5 C23.17275,24.5 22.5,23.82725 22.5,23 C22.5,22.17275 23.17275,21.5 24,21.5 Z" id="Shape"></path>
                            <path d="M6.75009374,8 C6.94206974,8 7.13404574,7.92650459 7.28027747,7.78026373 L8.78008999,6.28035748 C9.07330334,5.9871258 9.07330334,5.51315543 8.78008999,5.21992375 C8.48687664,4.92669208 8.01293588,4.92669208 7.71972253,5.21992375 L6.21991001,6.71983001 C5.92669666,7.01306168 5.92669666,7.48703206 6.21991001,7.78026373 C6.36614173,7.92650459 6.55811774,8 6.75009374,8 Z" id="Shape"></path>
                            <path d="M32,20.8231647 C32,20.2071724 31.7579833,19.6282796 31.3191077,19.1928851 L30.9260952,18.80299 C31.5956981,18.2149973 31.9992944,17.3645079 31.9992944,16.4496194 C31.9992944,14.7129411 30.5747124,13.2996588 28.8241487,13.2996588 C28.6957317,13.2996588 28.5687259,13.3122586 28.4431313,13.3276584 C28.4586542,13.20236 28.4713548,13.0777615 28.4713548,12.9496631 C28.4713548,11.2129848 27.0467728,9.7997025 25.2962091,9.7997025 C25.1677921,9.7997025 25.0407863,9.81230235 24.9151916,9.82770215 C24.9307146,9.70240372 24.9434152,9.57780528 24.9434152,9.44970688 C24.9434152,7.71302859 23.5188331,6.29974625 21.7682695,6.29974625 C21.6398525,6.29974625 21.5128467,6.3123461 21.387252,6.3277459 C21.4027749,6.20244747 21.4154755,6.07784903 21.4154755,5.94975063 C21.4154755,4.21307234 19.9908935,2.79979 18.2403299,2.79979 C17.3174209,2.79979 16.4608371,3.20088499 15.8681433,3.86447669 L15.3079064,3.30868364 L12.6527791,0.674616567 C11.7460986,-0.224872189 10.2714198,-0.224872189 9.36615052,0.674616567 L0.678951981,9.29290884 C-0.226317327,10.1923976 -0.226317327,11.6546793 0.678951981,12.5541681 L3.33407935,15.1882351 L6.79851606,18.6251922 C5.84173883,19.1683854 5.18765883,20.1798728 5.18765883,21.3495581 C5.18765883,22.4436445 5.75424593,23.4082324 6.61082967,23.9731253 C6.65387054,24.0298246 6.70396728,24.0858239 6.77099813,24.1425232 L14.3603019,31.6429295 L14.3603019,32.9001137 L12.949126,32.9001137 L12.949126,42 L25.6497087,42 L31.2944121,42 L31.2944121,32.9001137 L29.8832362,32.9001137 L29.8832362,30.7791403 C31.2330259,29.6444544 32,28.0127748 32,26.2494969 C32,25.0315121 31.6168658,23.8485269 30.9162169,22.8531393 L31.3191077,22.4534443 C31.7579833,22.0180498 32,21.439157 32,20.8231647 Z M30.5888241,16.4496194 C30.5888241,16.9872127 30.339046,17.4849064 29.9276883,17.8125023 L27.4503691,15.3548331 C27.7805842,14.9467382 28.2829628,14.6989413 28.8241487,14.6989413 C29.7971545,14.6996413 30.5888241,15.4843314 30.5888241,16.4496194 Z M27.0608845,12.9496631 C27.0608845,13.4872564 26.8111064,13.9849502 26.3997486,14.3125461 L23.9224294,11.8548768 C24.2526446,11.4467819 24.7550232,11.198985 25.2962091,11.198985 C26.2692149,11.199685 27.0608845,11.9843752 27.0608845,12.9496631 Z M23.5329449,9.44970688 C23.5329449,9.98730016 23.2831668,10.4849939 22.871809,10.8125898 L20.3944898,8.35492056 C20.7247049,7.94682566 21.2270836,7.69902876 21.7682695,7.69902876 C22.7412752,7.69972875 23.5329449,8.48441894 23.5329449,9.44970688 Z M18.2410355,4.1997725 C19.2140412,4.1997725 20.0050053,4.98446269 20.0050053,5.94975063 C20.0050053,6.48734391 19.7552271,6.98503769 19.3438694,7.31263359 L16.8665502,4.85496431 C17.1967653,4.44756941 17.6991439,4.1997725 18.2410355,4.1997725 Z M1.67665331,11.5650804 C1.32103699,11.2115849 1.32103699,10.636892 1.67665331,10.2833965 L10.3638518,1.66510419 C10.4520503,1.57760528 10.5550662,1.5118061 10.6644323,1.46770665 C10.7138235,1.44740691 10.7695649,1.4481069 10.8217784,1.43690704 C10.9473731,1.41030737 11.0715565,1.41030737 11.1971512,1.43690704 C11.2493647,1.4481069 11.3051061,1.44740691 11.3544973,1.46770665 C11.4638634,1.5118061 11.5661737,1.57760528 11.6550778,1.66510419 L13.3125038,3.30938363 L3.33407935,13.2086599 L1.67665331,11.5650804 Z M14.3102051,4.29917126 L15.1413877,5.12376095 L18.6693273,8.6237172 L19.0736292,9.02481219 L22.1972669,12.1236735 L22.6015688,12.5247684 L25.7252066,15.6236297 L26.1295085,16.0247247 L29.6574481,19.5246809 L30.3207007,20.1826727 C30.6770226,20.5361683 30.6770226,21.1101611 30.3207007,21.4636567 L30.0123588,21.7702529 L30.0123588,21.7702529 L21.6342078,30.082649 C21.2792971,30.4354446 20.6985982,30.4368445 20.3422763,30.082649 L14.7152126,24.4995188 L15.4179782,24.4995188 C17.1685418,24.4995188 18.5931238,23.0862364 18.5931238,21.3495581 C18.5931238,19.6128798 17.1685418,18.1995975 15.4179782,18.1995975 L8.36421567,18.1995975 L4.33107508,14.1984475 L14.3102051,4.29917126 Z M7.98178701,19.6429795 L8.274606,19.6100799 C8.30353511,19.6058799 8.33246421,19.59958 8.3620989,19.59958 L15.4179782,19.59958 C16.3909839,19.59958 17.181948,20.3842702 17.181948,21.3495581 C17.181948,22.3148461 16.3909839,23.0995363 15.4179782,23.0995363 L13.3040367,23.0995363 L11.3086341,23.0995363 L8.3620989,23.0995363 C7.38909315,23.0995363 6.59812909,22.3148461 6.59812909,21.3495581 C6.59883468,20.5144686 7.19223412,19.8165773 7.98178701,19.6429795 Z M14.3603019,40.5993175 L14.3603019,34.2993963 L20.3055857,34.2993963 C22.4738574,34.2993963 24.2385328,36.0500744 24.2385328,38.2011475 L24.2385328,40.5993175 L14.3603019,40.5993175 Z M29.8832362,40.5993175 L25.6497087,40.5993175 L25.6497087,38.2011475 C25.6497087,36.6569668 24.9765778,35.2695841 23.91114,34.2993963 L29.8832362,34.2993963 L29.8832362,40.5993175 Z M29.9008759,23.8611267 C30.3482187,24.5758178 30.5888241,25.4025075 30.5888241,26.2494969 C30.5888241,27.6879789 29.9199268,29.0116624 28.7528844,29.8831515 L28.4720604,30.0931488 L28.4720604,32.8994138 L20.3048801,32.8994138 L15.7707721,32.8994138 L15.7707721,30.9968375 L15.5216996,30.7875402 C15.4899481,30.7602405 15.4560799,30.7350408 15.3946938,30.6895414 L9.13118974,24.4988188 L12.7191043,24.4988188 L19.3438694,31.0717366 C19.7975624,31.521131 20.392373,31.7458282 20.9871837,31.7458282 C21.5826999,31.7458282 22.1782161,31.521131 22.6312035,31.0717366 L29.9008759,23.8611267 Z" id="Shape" stroke="#FE8B0F" stroke-width="0.5"></path>
                        </g>
                    </g>
                </g>
            </g>
        </g>
    </g>
</svg>