<?xml version="1.0" encoding="UTF-8"?>
<svg width="40px" height="32px" viewBox="0 0 40 32" version="1.1" xmlns="http://www.w3.org/2000/svg" xmlns:xlink="http://www.w3.org/1999/xlink">
    <!-- Generator: Sketch 47.1 (45422) - http://www.bohemiancoding.com/sketch -->
    <title>return</title>
    <desc>Created with Sketch.</desc>
    <defs></defs>
    <g id="Pendanaan" stroke="none" stroke-width="1" fill="none" fill-rule="evenodd">
        <g id="Pendanaan---Desktop-HD" transform="translate(-305.000000, -1549.000000)">
            <g id="Benefit-meminjam" transform="translate(0.000000, 1331.000000)">
                <g id="sekilas-copy-2">
                    <g id="Group-9" transform="translate(280.000000, 189.000000)">
                        <g id="return">
                            <circle id="Oval" cx="45" cy="45" r="45"></circle>
                            <g id="003-arrows" transform="translate(25.000000, 29.000000)" fill="#FE8B0F">
                                <path d="M19.5122334,1.56097561 C12.1960588,1.56097561 6.24390244,7.51313196 6.24390244,14.82923 C6.24390244,22.1454046 12.1960588,28.097561 19.5122334,28.097561 C26.828408,28.097561 32.7804878,22.1454046 32.7804878,14.8291534 C32.7804878,7.51305537 26.8283315,1.56097561 19.5122334,1.56097561 Z M19.5122334,25.7995092 C13.4631888,25.7995092 8.54187764,20.878198 8.54187764,14.8291534 C8.54187764,8.78010879 13.4631888,3.85887422 19.5122334,3.85887422 C25.561278,3.85887422 30.4825892,8.78018538 30.4825892,14.8291534 C30.4825892,20.8782746 25.561278,25.7995092 19.5122334,25.7995092 Z" id="Shape" fill-rule="nonzero"></path>
                                <path d="M15.5514451,16.9190751 C15.5005778,16.9190751 15.4566476,16.9005782 15.4196532,16.8635838 C15.3826588,16.8265894 15.3641618,16.7826592 15.3641618,16.7317919 L15.3641618,12.2508671 C15.3641618,12.1999997 15.3826588,12.1560695 15.4196532,12.1190751 C15.4566476,12.0820807 15.5005778,12.0635838 15.5514451,12.0635838 L17.6046243,12.0635838 C18.2705236,12.0635838 18.7907496,12.2127153 19.1653179,12.5109827 C19.5398863,12.80925 19.7271676,13.2219627 19.7271676,13.7491329 C19.7271676,14.0497125 19.6601163,14.3144497 19.5260116,14.5433526 C19.3919068,14.7722555 19.2092497,14.9606929 18.9780347,15.1086705 L19.8312139,16.6901734 C19.8450868,16.7179192 19.8520231,16.7433525 19.8520231,16.766474 C19.8520231,16.8080927 19.8369944,16.8439305 19.8069364,16.8739884 C19.7768785,16.9040464 19.7410407,16.9190751 19.699422,16.9190751 L18.2774566,16.9190751 C18.1942192,16.9190751 18.1283239,16.8994222 18.0797688,16.8601156 C18.0312136,16.8208091 17.997688,16.7780349 17.9791908,16.7317919 L17.382659,15.4069364 L17.0982659,15.4069364 L17.0982659,16.7317919 C17.0982659,16.7826592 17.079769,16.8265894 17.0427746,16.8635838 C17.0057802,16.9005782 16.96185,16.9190751 16.9109827,16.9190751 L15.5514451,16.9190751 Z M17.6046243,14.0890173 C17.7063589,14.0890173 17.7849708,14.0554917 17.8404624,13.9884393 C17.895954,13.9213869 17.9236994,13.8369947 17.9236994,13.7352601 C17.9236994,13.6335255 17.8971101,13.5445091 17.8439306,13.4682081 C17.7907512,13.3919071 17.7109832,13.3537572 17.6046243,13.3537572 L17.0982659,13.3537572 L17.0982659,14.0890173 L17.6046243,14.0890173 Z M20.4901734,18.2369942 C20.4393061,18.2369942 20.3953759,18.2184973 20.3583815,18.1815029 C20.3213871,18.1445085 20.3028902,18.1005783 20.3028902,18.049711 L20.3028902,13.499422 C20.3028902,13.4485547 20.3213871,13.4046245 20.3583815,13.3676301 C20.3953759,13.3306357 20.4393061,13.3121387 20.4901734,13.3121387 L21.6693642,13.3121387 C21.7202315,13.3121387 21.7641617,13.3306357 21.8011561,13.3676301 C21.8381505,13.4046245 21.8566474,13.4485547 21.8566474,13.499422 L21.8566474,13.7075145 C21.9676306,13.5641611 22.1098257,13.4508675 22.283237,13.3676301 C22.4566483,13.2843926 22.6566463,13.2427746 22.883237,13.2427746 C23.3132969,13.2427746 23.6601143,13.372253 23.9236994,13.6312139 C24.1872846,13.8901747 24.3306357,14.2947949 24.3537572,14.8450867 C24.3583815,14.9144512 24.3606936,15.0046237 24.3606936,15.1156069 C24.3606936,15.2312145 24.3583815,15.3236991 24.3537572,15.3930636 C24.33526,15.9156095 24.1907528,16.3121374 23.9202312,16.582659 C23.6497096,16.8531805 23.3040483,16.9884393 22.883237,16.9884393 C22.4624256,16.9884393 22.1549143,16.8497124 21.9606936,16.5722543 L21.9606936,18.049711 C21.9606936,18.1005783 21.9421967,18.1445085 21.9052023,18.1815029 C21.8682079,18.2184973 21.8242777,18.2369942 21.7734104,18.2369942 L20.4901734,18.2369942 Z M22.3075145,15.7468208 C22.4277463,15.7468208 22.5121385,15.7144512 22.5606936,15.649711 C22.6092488,15.5849708 22.6404624,15.4832377 22.6543353,15.3445087 C22.6635839,15.2520227 22.6682081,15.1757228 22.6682081,15.1156069 C22.6682081,15.055491 22.6635839,14.9791912 22.6543353,14.8867052 C22.6404624,14.7479762 22.6092488,14.6462431 22.5606936,14.5815029 C22.5121385,14.5167627 22.4277463,14.4843931 22.3075145,14.4843931 C22.1872826,14.4843931 22.1017344,14.5179187 22.0508671,14.5849711 C21.9999997,14.6520235 21.9699422,14.7526005 21.9606936,14.8867052 C21.9560693,14.9560697 21.9537572,15.041618 21.9537572,15.1433526 C21.9537572,15.2450872 21.9560693,15.3306355 21.9606936,15.4 C21.9699422,15.5156075 22.0011558,15.6023118 22.0543353,15.6601156 C22.1075147,15.7179194 22.1919069,15.7468208 22.3075145,15.7468208 Z" id="Rp"></path>
                                <path d="M37.8848134,13.2682927 C37.255471,13.2682927 36.7453125,13.7685228 36.7453125,14.3854509 C36.7453125,17.5296693 35.8257965,20.5782654 34.0860466,23.2017738 C32.8461244,25.0715486 31.2384717,26.659446 29.3644975,27.8807909 L29.4694006,27.435 C29.6109171,26.8337855 29.2286021,26.233986 28.6153636,26.0951697 C28.0018972,25.956279 27.3903299,26.3312468 27.2487373,26.9325357 L26.5650064,29.8368045 C26.5624237,29.8476775 26.5612843,29.858476 26.5590814,29.8693489 C26.555815,29.8852115 26.551865,29.9008507 26.5493583,29.9168622 C26.5483708,29.9230434 26.547991,29.9291501 26.5471554,29.9353313 C26.5449525,29.9507471 26.5436612,29.9660884 26.5421419,29.9814296 C26.5406987,29.9962496 26.5385717,30.0109951 26.5376602,30.0258896 C26.5372804,30.03289 26.5373563,30.0398904 26.5370525,30.0468908 C26.5364448,30.0626044 26.5366727,30.0780946 26.5367486,30.0937338 C26.5368246,30.1075112 26.5362929,30.1212885 26.5368246,30.1351404 C26.5371285,30.1425131 26.5378881,30.1497369 26.5383438,30.1571097 C26.5393313,30.1731212 26.5412304,30.1889093 26.5429015,30.2047719 C26.5442689,30.217879 26.5451044,30.2309117 26.5470035,30.2440188 C26.5480669,30.2511681 26.5494342,30.258243 26.5506496,30.2653923 C26.5533843,30.2819996 26.5569545,30.2983091 26.5604487,30.314693 C26.5630314,30.3269064 26.5649304,30.3391943 26.5679689,30.3513333 C26.56964,30.3580358 26.571691,30.3645149 26.5734381,30.3711429 C26.5781478,30.3887929 26.5838449,30.4059959 26.589466,30.423348 C26.5930362,30.4343699 26.5956949,30.4455407 26.5996449,30.4565626 C26.6017718,30.4624459 26.6042786,30.4681058 26.6064815,30.4739146 C26.6129382,30.4910433 26.6203065,30.507725 26.6275988,30.5244813 C26.6329161,30.5367692 26.6374738,30.549355 26.6432469,30.561494 C26.6454498,30.5661113 26.6480325,30.5705051 26.6503113,30.5751224 C26.655021,30.5847293 26.6601104,30.5941129 26.6651239,30.6034964 C26.6728719,30.6180929 26.68062,30.6326895 26.6889758,30.6468392 C26.6930018,30.6536907 26.6973316,30.6603932 26.7015855,30.6672446 C26.7059153,30.674245 26.7101691,30.6813199 26.7147268,30.6882458 C26.7246018,30.7034381 26.7349326,30.7182581 26.7454153,30.7328547 C26.750049,30.7392593 26.7546067,30.7457384 26.7593923,30.7520685 C26.7789144,30.7779848 26.7991202,30.8031565 26.8206174,30.8270621 C26.8209972,30.8275089 26.821377,30.8279557 26.8217568,30.8284026 C26.8269222,30.8341369 26.8323155,30.8394989 26.8375568,30.8450843 C26.8421145,30.849925 26.8469001,30.8545423 26.8515338,30.859383 C26.864979,30.8731604 26.8785002,30.8867888 26.892629,30.8998214 C26.8983262,30.905109 26.9043271,30.9101731 26.9101762,30.9153861 C26.9163291,30.9208226 26.92233,30.9263336 26.9286349,30.9316956 C26.9417003,30.9427919 26.9549936,30.953367 26.9685147,30.9637931 C26.9764907,30.9699743 26.9843907,30.97623 26.9925946,30.9822622 C26.9968484,30.9853901 27.0008744,30.9888158 27.0052042,30.9918691 C27.0094581,30.9949225 27.0140917,30.9976035 27.0184216,31.0005824 C27.0357408,31.0125724 27.053136,31.0244135 27.071063,31.0353609 C27.0764563,31.0386377 27.0821534,31.0415421 27.0876226,31.0448189 C27.0977255,31.0507767 27.1080563,31.0565111 27.1183871,31.0621709 C27.1314525,31.0693203 27.1445179,31.0763207 27.1578112,31.0829487 C27.1673064,31.0877149 27.1768776,31.0924067 27.1866007,31.096875 C27.1935891,31.1001518 27.2005017,31.1035775 27.2075661,31.1067054 C27.2257969,31.1147484 27.2444835,31.1219722 27.2630941,31.129047 C27.2694748,31.1315046 27.2757037,31.1342601 27.2821604,31.1365687 C27.287098,31.1383561 27.2921874,31.1398455 27.2971249,31.1415584 C27.3059364,31.1446117 27.3149759,31.1472927 27.3239394,31.1501227 C27.3421702,31.1559315 27.3605529,31.1614425 27.3790875,31.1663576 C27.3825818,31.1672513 27.3858481,31.1686663 27.3894183,31.1695599 L30.5149369,31.9640299 C30.6108765,31.9883823 30.706968,32 30.8016922,32 C31.3084324,32 31.770887,31.6662154 31.9039719,31.1629319 C32.0618962,30.56559 31.6961407,29.9559601 31.0869282,29.8010579 L30.6898766,29.700148 C32.7944704,28.316528 34.6006109,26.5250235 35.9967103,24.419693 C37.9774106,21.4328345 39.0243902,17.9630978 39.0243902,14.3854509 C39.0243143,13.7684483 38.5140798,13.2682927 37.8848134,13.2682927 Z" id="Shape" fill-rule="nonzero"></path>
                                <path d="M8.55977854,1.10829507 C8.55977854,1.10590971 8.55940511,1.10367345 8.55933042,1.10128809 C8.55933042,1.09905182 8.55955448,1.09696464 8.55955448,1.09472837 C8.55933042,1.08324885 8.55768731,1.07206751 8.55708982,1.06066253 C8.55611889,1.04098336 8.5555214,1.02137873 8.55343017,1.00177411 C8.55290736,0.996854315 8.55238455,0.992009064 8.55178706,0.987163814 C8.55021863,0.973522571 8.54752991,0.960328583 8.54543868,0.946910967 C8.54267527,0.929169897 8.54035998,0.911428827 8.53670032,0.893762299 C8.53550533,0.888022542 8.53438503,0.882357326 8.53311536,0.87669211 C8.53012789,0.863050868 8.5260948,0.849931421 8.52258452,0.836513805 C8.51840206,0.820412666 8.51459303,0.804236985 8.5096637,0.788284931 C8.50779654,0.782321546 8.50600405,0.776358161 8.5040622,0.770394776 C8.49958099,0.756678991 8.49405417,0.743485002 8.48905015,0.729992844 C8.48359801,0.715308009 8.47851931,0.700474089 8.472395,0.685938339 C8.46993033,0.680124038 8.46754035,0.674384281 8.465001,0.668644523 C8.458802,0.654481484 8.45155738,0.640989326 8.44476088,0.627124456 C8.43826313,0.613930467 8.43228819,0.600661936 8.42526763,0.587691574 C8.42242953,0.582473612 8.41966612,0.57725565 8.41675334,0.572112231 C8.40816435,0.556831057 8.39852976,0.542369849 8.38934328,0.527610472 C8.38239741,0.516429125 8.37604903,0.505024152 8.36865504,0.494066432 C8.36574226,0.489742978 8.36282947,0.485568609 8.359842,0.481319697 C8.34893773,0.465665812 8.33706253,0.450906434 8.32541139,0.43592343 C8.32257329,0.432270857 8.31995925,0.428543741 8.31712116,0.424965711 C8.3123412,0.419002326 8.3083828,0.412591687 8.30352816,0.406702845 C8.30308004,0.406181048 8.30263192,0.405733795 8.3021838,0.405211998 C8.29979382,0.402304848 8.29717978,0.399546783 8.2947898,0.396714175 C8.2817943,0.381433001 8.26782787,0.367046336 8.2540855,0.352436043 C8.24512309,0.342969169 8.23683285,0.332831415 8.227497,0.323588169 C8.2252564,0.321426442 8.22294111,0.319413799 8.22070051,0.317252072 C8.20591252,0.302939949 8.1902283,0.289671417 8.17469344,0.276104717 C8.16528291,0.267905063 8.15632049,0.259034528 8.14661121,0.251133043 C8.14369842,0.248747689 8.14078564,0.246362335 8.13779817,0.243976981 C8.12181519,0.231230246 8.10493598,0.219750731 8.08828082,0.207898503 C8.07842217,0.200891526 8.06901163,0.193362753 8.05892892,0.186653945 C8.05586676,0.184641302 8.05295397,0.182479575 8.04989181,0.180466933 C8.03226573,0.168987417 8.01374341,0.158924205 7.99551983,0.148488282 C7.98521305,0.142599439 7.97520502,0.136263343 7.96474887,0.13067267 C7.96228421,0.129405451 7.95996892,0.12776552 7.95750425,0.1264983 C7.93808569,0.116360546 7.91784557,0.107713638 7.89775482,0.0986940187 C7.88744804,0.0940723955 7.87744001,0.0890035184 7.86698386,0.0846800644 C7.84390564,0.0751386487 7.82015524,0.0670135369 7.79633015,0.0590375097 C7.78557526,0.0554594788 7.77511911,0.0513596517 7.76421483,0.0480797901 C7.74053912,0.0409237283 7.71641529,0.0352585127 7.69214208,0.0296678395 C7.68026688,0.026909774 7.66861574,0.0237044546 7.65659117,0.021393643 C7.63358763,0.0169211044 7.61013598,0.0138648697 7.58660964,0.010808635 C7.57391289,0.00916870416 7.56151488,0.00678335023 7.54866875,0.00551613096 C7.54635346,0.00529250403 7.54403817,0.0051434194 7.54164819,0.00491979247 C7.52267775,0.00320531934 7.50340856,0.0029071501 7.48413936,0.002161727 C7.47353384,0.00171447313 7.46292832,0.000745423102 7.45232279,0.000670880792 C7.44806564,0.000596338482 7.44388318,0 7.43962604,0 C7.43940198,0 7.4392526,0 7.43902854,0 C7.43887917,0 7.43865511,0 7.43850573,0 C7.43551826,0 7.4324561,0 7.42946863,0 C7.42715334,0 7.42491274,0.000372711551 7.42259745,0.000372711551 C7.42035684,0.000372711551 7.41811624,0.00014908462 7.41587564,0.00014908462 L3.99350277,0.0717842447 C3.37487207,0.0847546067 2.88395579,0.595816686 2.8968766,1.21325064 C2.90964804,1.82270857 3.40877987,2.30797901 4.0165063,2.30797901 C4.02449779,2.30797901 4.03248927,2.30790447 4.04048076,2.30775538 L4.61429938,2.29575407 C1.65505931,5.64225654 0,9.95274018 0,14.4915469 C0,15.1091299 0.501671182,15.6097561 1.12037657,15.6097561 C1.73908195,15.6097561 2.24075313,15.1090554 2.24075313,14.4915469 C2.24075313,10.4796798 3.71253106,6.67094043 6.34217831,3.72256843 L6.34464298,4.00418928 C6.35009511,4.61841791 6.85064599,5.11248435 7.46479549,5.11248435 C7.46815639,5.11248435 7.47159198,5.11248435 7.47495289,5.11248435 C8.09373296,5.10696822 8.59077356,4.60186952 8.58532143,3.98436102 L8.55977854,1.10829507 Z" id="Shape" fill-rule="nonzero"></path>
                            </g>
                        </g>
                    </g>
                </g>
            </g>
        </g>
    </g>
</svg>