<?xml version="1.0" encoding="UTF-8"?>
<svg width="32px" height="32px" viewBox="0 0 32 32" version="1.1" xmlns="http://www.w3.org/2000/svg" xmlns:xlink="http://www.w3.org/1999/xlink">
    <!-- Generator: Sketch 47.1 (45422) - http://www.bohemiancoding.com/sketch -->
    <title>sukubunga</title>
    <desc>Created with Sketch.</desc>
    <defs></defs>
    <g id="Homepage" stroke="none" stroke-width="1" fill="none" fill-rule="evenodd">
        <g id="Homepage-(meminjam)---Desktop-HD" transform="translate(-304.000000, -1184.000000)">
            <g id="meminjam" transform="translate(0.000000, 1002.000000)">
                <g id="sekilas-copy-2">
                    <g id="sukubunga" transform="translate(275.000000, 152.000000)">
                        <circle id="Oval" cx="45" cy="45" r="45"></circle>
                        <g id="discount" transform="translate(29.000000, 30.000000)" fill-rule="nonzero" fill="#FE8B0F">
                            <path d="M12.226308,5.67647563 C10.6785185,5.67647563 9.41929045,6.9357037 9.41929045,8.48349318 C9.41929045,10.0312827 10.6785185,11.2905107 12.226308,11.2905107 C13.7740975,11.2905107 15.0333255,10.0312827 15.0333255,8.48349318 C15.0333255,6.9357037 13.7740975,5.67647563 12.226308,5.67647563 Z M12.226308,9.41916569 C11.7103782,9.41916569 11.2906355,8.999423 11.2906355,8.48349318 C11.2906355,7.96756335 11.7103782,7.54782066 12.226308,7.54782066 C12.7422378,7.54782066 13.1619805,7.96756335 13.1619805,8.48349318 C13.1619805,8.999423 12.7422378,9.41916569 12.226308,9.41916569 Z" id="Shape"></path>
                            <path d="M19.7116881,13.1618558 C18.1638986,13.1618558 16.9046706,14.4210838 16.9046706,15.9688733 C16.9046706,17.5166628 18.1638986,18.7758908 19.7116881,18.7758908 C21.2594776,18.7758908 22.5187057,17.5166628 22.5187057,15.9688733 C22.5187057,14.4210838 21.2594776,13.1618558 19.7116881,13.1618558 Z M19.7116881,16.9045458 C19.1957583,16.9045458 18.7760156,16.4848031 18.7760156,15.9688733 C18.7760156,15.4529435 19.1957583,15.0332008 19.7116881,15.0332008 C20.2276179,15.0332008 20.6473606,15.4529435 20.6473606,15.9688733 C20.6473606,16.4848031 20.2276179,16.9045458 19.7116881,16.9045458 Z" id="Shape"></path>
                            <path d="M20.2306745,5.83360624 C19.8007018,5.54704094 19.2197739,5.66318908 18.9331462,6.09316179 L11.4477661,17.321232 C11.161076,17.7512047 11.2772865,18.3321326 11.7072593,18.6187602 C12.1374815,18.9055127 12.718347,18.7889903 13.0047875,18.3592047 L20.4901676,7.1311345 C20.7768577,6.70116179 20.6607096,6.12023392 20.2306745,5.83360624 Z" id="Shape"></path>
                            <path d="M31.0021365,18.7758908 L26.2613957,18.7758908 L26.2613957,0.935734893 C26.2613957,0.418994152 25.8424639,6.23781676e-05 25.3257232,6.23781676e-05 L6.6122729,6.23781676e-05 C6.09553216,6.23781676e-05 5.67660039,0.418994152 5.67660039,0.935734893 L5.67660039,18.7758908 L0.935859649,18.7758908 C0.0414191033,18.7758908 -0.343641326,19.9207797 0.373957115,20.4597271 L15.4070955,31.7501754 C15.7399454,32.0001871 16.1980507,32.0001871 16.5309006,31.7501754 L31.564039,20.4597271 C32.2792047,19.9225263 31.8995712,18.7758908 31.0021365,18.7758908 Z M15.9689981,29.8317973 L3.73975828,20.6472359 L6.6122729,20.6472359 C7.12901365,20.6472359 7.54794542,20.2283041 7.54794542,19.7115634 L7.54794542,1.87140741 L24.3900507,1.87140741 L24.3900507,19.7115634 C24.3900507,20.2283041 24.8089825,20.6472359 25.3257232,20.6472359 L28.1982378,20.6472359 L15.9689981,29.8317973 Z" id="Shape"></path>
                        </g>
                    </g>
                </g>
            </g>
        </g>
    </g>
</svg>